<?xml version="1.0" encoding="iso-8859-1"?>
<!-- Generator: Adobe Illustrator 14.0.0, SVG Export Plug-In . SVG Version: 6.00 Build 43363)  -->
<!DOCTYPE svg PUBLIC "-//W3C//DTD SVG 1.1//EN" "http://www.w3.org/Graphics/SVG/1.1/DTD/svg11.dtd">
<svg version="1.1" id="&#x30EC;&#x30A4;&#x30E4;&#x30FC;_1"
	 xmlns="http://www.w3.org/2000/svg" xmlns:xlink="http://www.w3.org/1999/xlink" x="0px" y="0px" width="1024px" height="768px"
	 viewBox="0 0 1024 768" style="enable-background:new 0 0 1024 768;" xml:space="preserve">
<g id="jfx:p00">
	<g>
		<g>
			
				<linearGradient id="SVGID_1_" gradientUnits="userSpaceOnUse" x1="5769.207" y1="-8209.6445" x2="7407.6079" y2="-8209.6445" gradientTransform="matrix(0 0.4675 -0.4688 0 -3336.6812 -2696.085)">
				<stop  offset="0" style="stop-color:#1C123B"/>
				<stop  offset="1" style="stop-color:#5C78C9"/>
			</linearGradient>
			<path style="fill:url(#SVGID_1_);" d="M1024,768V0H0v768H1024z"/>
		</g>
	</g>
</g>
<polygon style="opacity:0.6;fill:#FFFCDB;" points="15.245,0 146.5,657.7 178,652.1 78.919,0 "/>
<polygon style="opacity:0.6;fill:#FFFCDB;" points="250.923,0 370,596.6 401.5,591.1 311.688,0 "/>
<g id="jfx:p03">
	
		<linearGradient id="SVGID_2_" gradientUnits="userSpaceOnUse" x1="161.2559" y1="724.6804" x2="161.2559" y2="725.6777" gradientTransform="matrix(1 0 0 1 0.0801 -73.9805)">
		<stop  offset="0" style="stop-color:#1C123B"/>
		<stop  offset="1" style="stop-color:#000000"/>
	</linearGradient>
	<circle style="fill:url(#SVGID_2_);" cx="161.336" cy="651.2" r="0.5"/>
</g>
<g id="jfx:p04">
	<g>
		
			<linearGradient id="SVGID_3_" gradientUnits="userSpaceOnUse" x1="69384.75" y1="253152.0313" x2="71021.6797" y2="253152.0313" gradientTransform="matrix(0.0325 0 0 0.0183 -2116.1042 -3970.3826)">
			<stop  offset="0" style="stop-color:#FDD000"/>
			<stop  offset="1" style="stop-color:#B29652"/>
		</linearGradient>
		<path style="fill:url(#SVGID_3_);" d="M146.6,650.601c-5.1,2.1-7.7,4.6-7.7,7.6c0,1.5,0.6,2.9,1.7,4.102l8.5,14.898l0.2-0.1
			c-0.1-1.801,1.5-3.4,4.7-4.602c3.2-1.398,7-2,11.5-2s8.3,0.602,11.5,2c3.2,1.199,4.8,2.801,4.8,4.602l0.3,0.199l9-16.102
			c0.7-0.898,1-1.898,1-3c0-3-2.6-5.5-7.8-7.6c-5.2-2.2-11.4-3.301-18.8-3.301C158.1,647.302,151.9,648.4,146.6,650.601z"/>
		
			<linearGradient id="SVGID_4_" gradientUnits="userSpaceOnUse" x1="116014.4141" y1="718339" x2="117651.3359" y2="718339" gradientTransform="matrix(0.0199 0 0 0.0065 -2159.3606 -3993.4031)">
			<stop  offset="0" style="stop-color:#FDD000"/>
			<stop  offset="1" style="stop-color:#B29652"/>
		</linearGradient>
		<path style="fill:url(#SVGID_4_);" d="M154,672.5c-3.2,1.2-4.8,2.802-4.7,4.603c-0.1,0.1-0.1,0.3,0,0.397l0.9,1.9
			c0.4,0.6,1.2,1.2,2.2,1.7v-1.5c0.5-0.2,1-0.5,1.6-0.801c3.2-1.199,7-1.899,11.5-1.899s8.3,0.7,11.5,1.899
			c0.6,0.301,1.1,0.5,1.6,0.801v1.5c1.3-0.7,2.1-1.4,2.7-2.2c0.1-0.2,0.1-0.4,0.3-0.601c0.1-0.399,0.2-0.699,0.2-1.199
			c0-1.801-1.6-3.4-4.8-4.601c-3.2-1.399-7-2-11.5-2S157.2,671.101,154,672.5z"/>
		
			<linearGradient id="SVGID_5_" gradientUnits="userSpaceOnUse" x1="145331.7813" y1="51488.7656" x2="146969.2813" y2="51488.7656" gradientTransform="matrix(0.016 0 0 0.0859 -2172.9912 -3675.6345)">
			<stop  offset="0" style="stop-color:#FDD000"/>
			<stop  offset="1" style="stop-color:#B29652"/>
		</linearGradient>
		<path style="fill:url(#SVGID_5_);" d="M152.4,679.601v1.5V817.6h26.2V681.101v-1.5c-0.5-0.301-1-0.5-1.6-0.801
			c-3.2-1.199-7-1.899-11.5-1.899s-8.3,0.7-11.5,1.899C153.4,679.101,152.9,679.4,152.4,679.601z"/>
		
			<line style="fill:none;stroke:#000000;stroke-linecap:round;stroke-linejoin:round;" x1="152.4" y1="817.6" x2="178.6" y2="817.6"/>
		<path style="fill:none;stroke:#FDD000;stroke-linecap:round;stroke-linejoin:round;" d="M152.4,679.601c0.5-0.2,1-0.5,1.6-0.801
			c3.2-1.199,7-1.899,11.5-1.899s8.3,0.7,11.5,1.899c0.6,0.301,1.1,0.5,1.6,0.801"/>
		<path style="fill:none;stroke:#FDD000;stroke-linecap:round;stroke-linejoin:round;" d="M181.8,677.101c0-1.801-1.6-3.4-4.8-4.602
			c-3.2-1.398-7-2-11.5-2s-8.3,0.602-11.5,2c-3.2,1.199-4.8,2.801-4.7,4.602"/>
	</g>
</g>
<g id="jfx:p06">
	
		<linearGradient id="SVGID_6_" gradientUnits="userSpaceOnUse" x1="385.4204" y1="665.1492" x2="385.4204" y2="666.1465" gradientTransform="matrix(1 0 0 1 0.0801 -73.9805)">
		<stop  offset="0" style="stop-color:#1C123B"/>
		<stop  offset="1" style="stop-color:#000000"/>
	</linearGradient>
	<circle style="fill:url(#SVGID_6_);" cx="385.5" cy="591.669" r="0.5"/>
</g>
<g id="jfx:p07">
	<g>
		
			<linearGradient id="SVGID_7_" gradientUnits="userSpaceOnUse" x1="69384.7656" y1="253152.0938" x2="71021.6641" y2="253152.0938" gradientTransform="matrix(0.0325 0 0 0.0183 -1892.6042 -4029.4324)">
			<stop  offset="0" style="stop-color:#FDD000"/>
			<stop  offset="1" style="stop-color:#B29652"/>
		</linearGradient>
		<path style="fill:url(#SVGID_7_);" d="M370.1,591.5c-5.1,2.102-7.699,4.7-7.699,7.7c0,1.399,0.602,2.8,1.699,4l8.5,14.899h0.2
			c-0.103-1.899,1.5-3.399,4.7-4.699c3.197-1.301,7-1.9,11.5-1.9s8.3,0.602,11.5,1.9c3.197,1.3,4.8,2.8,4.8,4.699l0.3,0.101l9-16
			c0.7-1,1-2,1-3c0-3-2.6-5.601-7.8-7.7c-5.2-2.198-11.399-3.198-18.8-3.198C381.599,588.302,375.4,589.302,370.1,591.5z"/>
		
			<linearGradient id="SVGID_8_" gradientUnits="userSpaceOnUse" x1="145331.8125" y1="51488.7734" x2="146969.3281" y2="51488.7734" gradientTransform="matrix(0.016 0 0 0.0859 -1949.4912 -3734.6843)">
			<stop  offset="0" style="stop-color:#FDD000"/>
			<stop  offset="1" style="stop-color:#B29652"/>
		</linearGradient>
		<path style="fill:url(#SVGID_8_);" d="M377.5,619.802c-0.602,0.3-1.102,0.5-1.602,0.8V622v136.603h26.2V622V620.6
			c-0.5-0.3-1-0.5-1.601-0.8c-3.199-1.302-7-2-11.5-2S380.699,618.5,377.5,619.802z"/>
		
			<linearGradient id="SVGID_9_" gradientUnits="userSpaceOnUse" x1="116014.3828" y1="718339.25" x2="117651.4063" y2="718339.25" gradientTransform="matrix(0.0199 0 0 0.0065 -1935.8606 -4052.4529)">
			<stop  offset="0" style="stop-color:#FDD000"/>
			<stop  offset="1" style="stop-color:#B29652"/>
		</linearGradient>
		<path style="fill:url(#SVGID_9_);" d="M375.9,620.6c0.5-0.3,1-0.5,1.602-0.8c3.197-1.302,7-2,11.5-2s8.3,0.698,11.5,2
			c0.6,0.3,1.1,0.5,1.6,0.8V622c1.301-0.698,2.1-1.398,2.7-2.198c0.101-0.2,0.101-0.302,0.3-0.5c0.1-0.5,0.2-0.802,0.2-1.2
			c0-1.899-1.603-3.399-4.8-4.699c-3.2-1.301-7-1.898-11.5-1.898s-8.303,0.6-11.5,1.898c-3.2,1.3-4.803,2.8-4.7,4.699
			c-0.103,0.101-0.103,0.2,0,0.398l0.897,1.802c0.4,0.698,1.201,1.198,2.201,1.698V620.6L375.9,620.6z"/>
		
			<line style="fill:none;stroke:#000000;stroke-linecap:round;stroke-linejoin:round;" x1="375.9" y1="758.601" x2="402.1" y2="758.601"/>
		<path style="fill:none;stroke:#FDD000;stroke-linecap:round;stroke-linejoin:round;" d="M405.3,618.1
			c0-1.899-1.603-3.399-4.8-4.699c-3.2-1.301-7-1.898-11.5-1.898s-8.303,0.6-11.5,1.898c-3.2,1.3-4.803,2.8-4.7,4.699"/>
		<path style="fill:none;stroke:#FDD000;stroke-linecap:round;stroke-linejoin:round;" d="M375.9,620.6c0.5-0.3,1-0.5,1.602-0.8
			c3.197-1.302,7-2,11.5-2s8.3,0.698,11.5,2c0.6,0.3,1.1,0.5,1.6,0.8"/>
	</g>
</g>
<g id="jfx:p08">
	<g>
		<g>
			<g>
				<path d="M338.3,43.8c-3.899,0-8.103,7-12.399,20.9c-1.301,3.7-2.898,9.2-5,16.6c-1.898,6-3.398,10-4.601,12.2h-0.7v-4.2
					c0.898-1.898,1.6-4.698,2-8.5c0.5-3.8,0.801-8.5,0.801-14.3c0-4-1.101-10.6-3.301-19.7c-1-16.198-8.5-23.198-22.5-21
					c-3,0.5-5.5,2-7.6,4.5c-1.9,2.102-3.4,4.5-4.4,7.2l-0.8,0.3l2.8,32.602v6.3c0,4.101,0,7.2-0.1,9.4
					C280.6,81.3,278.7,76.8,277,72.8c-3.1-6.898-6.1-12.5-8.9-17C261.9,45.9,255.8,40.9,249.8,41c-5.6,0-10.2,1.9-14,5.602
					c-3.3,3.198-4.9,6.398-4.9,9.8c0,0,1.8,6.398,5.6,19c4.4,22.6,6.5,40.7,6.3,54.3c-0.3,13.601,0.8,23.2,3.3,28.9
					c2.4,5.698,8.7,11.6,18.9,17.6c6.2,3.601,12,5.8,17.3,6.5c1.6,1.601,2.8,3.4,3.8,5.601c1.9,3.899,3,9.601,3.4,17
					c0.1,4.199,0.3,10.801,0.3,19.801c0.2,7.898,1.1,14.199,2.7,18.8c1.7,5.1,4.9,10.3,9.4,15.5c5,5.9,10.5,10.2,16.5,13.2
					c2.101,1,9.199,3.8,21.101,8.3c12.399,4.7,19.101,7.1,20.101,7.1c0.801,0,1.5-0.398,2-1.198c0.399-0.9,0.7-1.4,0.899-1.602v-9.8
					h-1.4c-30.102-6-49.4-17-58-33.3c-2.9-5.5-4.602-11.8-5.1-19c-0.1-2.3-0.2-5.102-0.1-8.102c0.1-3.1,0.2-5.198,0.2-6.5
					c0-6.198,1-11.1,3.2-14.698c0.8-1.5,2.2-3.5,4.1-5.9c1.7-2.1,3.102-3.9,4.102-5.3c0.3,0,0.5,0,0.697-0.102
					c4.4-0.8,9.803-4.398,15.9-10.8c6.2-6.398,12.2-9.898,17.898-10.5l5.102-1.3c1.801,0,3.5,0,5.5,0.2
					c3,0.198,6.301,0.698,10,1.198c6,1,9.301,1.4,9.801,1.4c2.5,0,4.799-1.4,7-4.2c2.299-3.2,3.5-7,3.5-11.5
					c0-6.2-3.101-11.7-9.101-16.398c-5.5-4.2-10.802-6.302-16.2-6.302c-1.8,0-3.199,0.2-4.102,0.7l-0.898-0.398
					c2-3.802,3.898-10.7,5.801-20.602c1.799-10.2,2.699-18.5,2.699-24.898c0-12.2-1.602-21-4.8-26.2
					C354.5,46.8,347.9,43.8,338.3,43.8z"/>
			</g>
			<g>
				<path d="M699.5,205.8c-15.4-16.8-29.699-29.698-43.1-38.5c-13.5-8.8-24.801-15.6-33.801-20.5c-9-4.8-16.4-9-22.104-12.5
					c-7.396-4.6-12.801-9-16.197-13.198c-3.699-4.602-5.5-9.7-5.5-15.2c0-2.7,1-5.102,3-7c-8.398,2.398-21.803,8.2-40.199,17.6
					c-18.699,9.602-38.101,20.602-58.101,33c-22.302,13.801-41.5,26.9-57.699,39.5c-18.7,14.301-31.7,26.7-39,36.9
					C369.5,244.6,356,261,346.4,275.1c10.102-1.5,21.399-2.8,33.899-4.102c28.101-2.7,57.5-4.1,88-4.1
					c39.698,0,104.8,9.5,195.5,28.5c32.301,6.7,64.5,14,96.602,21.898l0.699-0.3l0,0c-5-16.7-11.801-33.5-20.301-50.1
					C728.6,243,714.801,222.7,699.5,205.8z"/>
				
					<radialGradient id="SVGID_10_" cx="1433.8691" cy="5897.5449" r="819.1982" gradientTransform="matrix(0.6309 0.103 -0.0759 0.4652 -41.9178 -2551.2507)" gradientUnits="userSpaceOnUse">
					<stop  offset="0" style="stop-color:#FFFFFF"/>
					<stop  offset="1" style="stop-color:#A0A0A1"/>
				</radialGradient>
				<path style="fill:url(#SVGID_10_);" d="M761.301,317.5c-0.301-0.1-0.701-0.2-0.9-0.2c-32.1-7.898-64.301-15.198-96.6-21.898
					c-90.701-19-155.799-28.5-195.5-28.5c-30.5,0-59.899,1.398-88,4.1c-12.5,1.301-23.8,2.602-33.899,4.102
					c-2,3-3.898,5.898-5.601,8.7c-9.7,16-18.399,30.6-26.399,44c-7.898,13.3-14.101,26.6-18.4,39.6c-4.8,14.6-7.2,29.5-7.2,44.899
					c0,31.501,6.6,54.501,19.8,68.801c5.6,6.2,13.2,11.601,22.7,16.5c6.2,3.101,15.7,7.101,28.7,11.9c0.197,0.1,0.5,0.198,0.8,0.3
					v0.5c47.7,9.398,83.897,8.301,108.601-3.3c24.699-11.7,45.101-16.802,61.101-15.2c16.1,1.601,27,3.398,32.801,5.398
					c4.299,1.399,9,2.801,14.299,4.2c0.201,0.102,0.4,0.199,0.701,0.199l0.5,0.2l-0.5,0.3C580.4,503.9,584,505.9,588.9,508
					c8.699,3.9,18.1,6.802,27.898,8.7c9.801,2,17.602,2.9,23.301,2.9c5.699-0.101,14.396,0.1,26,0.899
					c11.699,0.698,18.6,0.5,20.896-0.802c1.604-0.198,3.303-0.6,5-0.898c21.104-4.102,38.4-14.399,51.803-30.8
					c18.697-22.9,28-55.802,28-98.702C771.801,365.1,768.301,341.3,761.301,317.5z"/>
				<path style="fill:none;stroke:#000000;stroke-linecap:round;stroke-linejoin:round;" d="M761.301,317.5
					c-0.102-0.2-0.201-0.3-0.201-0.5l0,0"/>
				<path style="fill:none;stroke:#000000;stroke-linecap:round;stroke-linejoin:round;" d="M386.8,225.9
					c-17.3,18.7-30.8,35.1-40.4,49.2"/>
				<path style="fill:none;stroke:#000000;stroke-linecap:round;stroke-linejoin:round;" d="M577.6,501.4
					c0.201,0.1,0.4,0.199,0.701,0.199"/>
				<path style="fill:none;stroke:#000000;stroke-linecap:round;stroke-linejoin:round;" d="M761.301,317.5
					c-0.301-0.1-0.701-0.2-0.9-0.2"/>
			</g>
			<g>
				
					<radialGradient id="SVGID_11_" cx="10678.1621" cy="24114.0254" r="819.2013" gradientTransform="matrix(0.1695 0 0 0.1723 -1388.0758 -3889.6804)" gradientUnits="userSpaceOnUse">
					<stop  offset="0" style="stop-color:#E60012"/>
					<stop  offset="1" style="stop-color:#655046"/>
				</radialGradient>
				<path style="fill:url(#SVGID_11_);" d="M482.8,195.3c-33.7,2.2-62.8,15-87.2,38.2c-22,27.602-28,58.102-18.102,91.7
					c2,6.9,5.699,12.6,11.102,17.1c23.301,19.2,50.7,27.4,82.5,24.5c29.5-2.8,53.8-15.198,72.8-37.3c23.199-27,27.6-56.6,13.4-89
					C543.1,208.3,518.301,193.3,482.8,195.3z"/>
			</g>
			<g>
				<path d="M737.6,302.5c0-5.1-0.699-8.3-1.799-9.7c-1.701-2-4.9-3-9.801-3c-2.6,0-5.9,2.102-10,6.4c-4,4.2-6,7.7-6,10.4
					c0,3.3,1.6,5.5,5,6.5c1,0.3,2.9,0.8,5.6,1.398c2.801,0.8,5.5,1.102,8.1,1c9.801,8.102,22.4,17.3,37.9,27.602
					c10.301,7,22.201,14.698,35.4,23.198c-4.199,1.302-18.699,9.5-43.4,24.7c-18.299,11.3-29.799,18.4-34.299,21.2L724,411.8
					c-0.6-0.698-2.1-1-4.5-1c-4.699,0-9.5,3.7-14.5,11.002c-4.6,6.8-7,12.7-7,17.7c0,3.8,0.5,8,1.6,12.8c1.4,6.8,3.5,12.8,6.5,18
					c6.5,11.3,15.701,17.5,27.6,18.5l0.701-3.8c1.699,1.5,3.5,2.8,5.1,3.898c4,2.5,7.604,3.8,11,3.8c1.9,0,3.4-0.7,4.604-2.101
					c1.5-1.8,2.896-2.8,3.896-3.3l0.104-0.399c1.5,0.3,2.896,0.399,4.396,0.399c2.604,0,4.303-0.801,5.104-2.399
					c1.301-3,2.801-5.301,4.396-6.7c-3.1,0.3-8.896-1.8-17.396-6.3c-3.801-2.101-7.199-4.2-10.199-6.5l1.6-1.801
					c2.801-1.101,4.301-2.5,4.5-4.3c-0.4-2.2-0.5-3.8-0.5-4.8v-0.9c-3.199-2.1-6.5-4.5-9.6-7.3c-6.301-5.5-9.4-10.399-9.4-14.5
					c0-0.8,0.6-2.3,1.6-4.5c1.4-2.899,2.801-4.7,4.4-5.5c-3.699,1.3,7.699-7.102,34.1-25.302c26.5-17.898,41.801-27.699,45.9-29.398
					c-9-6.7-18.4-13.102-28-19c-10.4-6.102-17.699-10.5-22.301-13.2c-7.799-4.7-14.398-9.1-19.6-13c-1.104-0.9-2.199-1.8-3.4-2.7
					c-0.6-0.6-1.299-1.1-1.898-1.6c-1-0.8-1.9-1.7-2.801-2.5c-0.6-0.7-0.9-1.3-1.199-2C738.1,311.1,737.6,307.5,737.6,302.5z
					 M749,482.802L749,482.802L749,482.802L749,482.802z"/>
			</g>
		</g>
		<g>
			<g>
				<path style="fill:#B29652;" d="M831.6,540.601V524l-258.299-33l0,0V507.6l0,0L831.6,540.601z"/>
				<path style="fill:#FDD000;" d="M245.9,533.302h-0.1l0,0V550h0.1L573.301,507.6l0,0l0,0V491L245.9,533.302z"/>
				<path style="fill:#B29652;" d="M573.301,507.6L573.301,507.6L245.9,550l258.2,32.9l327.5-42.3L573.301,507.6z"/>
				
					<line style="fill:none;stroke:#000000;stroke-linecap:round;stroke-linejoin:round;" x1="831.6" y1="524" x2="831.6" y2="540.601"/>
				
					<line style="fill:none;stroke:#000000;stroke-linecap:round;stroke-linejoin:round;" x1="245.9" y1="533.302" x2="245.8" y2="533.302"/>
				<polyline style="fill:none;stroke:#B29652;stroke-linecap:round;stroke-linejoin:round;" points="573.301,491 245.9,533.302 
					245.8,533.302 245.8,533.302 245.8,550 245.9,550 				"/>
				<polyline style="fill:none;stroke:#B29652;stroke-linecap:round;stroke-linejoin:round;" points="573.301,491 573.301,507.6 
					573.301,507.6 573.301,507.6 245.9,550 				"/>
				<polyline style="fill:none;stroke:#B29652;stroke-linecap:round;stroke-linejoin:round;" points="245.9,550 504.1,582.9 
					831.6,540.601 831.6,524 573.301,491 573.301,491 				"/>
				
					<line style="fill:none;stroke:#FDD000;stroke-linecap:round;stroke-linejoin:round;" x1="573.301" y1="507.6" x2="831.6" y2="540.601"/>
			</g>
			<g>
				<g>
					<path style="fill:#B29652;" d="M300.5,595.802c0,4.3,0.3,7.198,0.6,8.698c0.5,1.5,1,2.602,1.9,3.4
						c0.6,0.5,1.6,0.699,2.698,0.399c1.802-0.2,3.201-1.3,4.102-3.3c0.7-1.602,1.101-4,1.3-7.302L300.5,595.802z"/>
					<path style="fill:#FDD000;" d="M300.5,595.802l-20.202,6.8c0.3,7.101,1.5,12.801,3.5,17c1.9,4.101,4.7,7.101,8.3,8.801
						c1.8,0.8,4,1.399,6.5,1.602c2.5,0.1,5.3,0,8.5-0.5c6.2-1,11.2-3.7,15.2-7.9c3.897-4.1,6.601-8.899,7.897-14.1
						c0.4-1.9,0.801-4,1.103-6.4c0.601-4.399,0.8-9.6,0.8-15.699v-45.602l-21,3.5v51.6c0,0.899,0,1.8,0,2.8
						c-0.199,3.301-0.602,5.7-1.3,7.301c-0.899,2-2.301,3.101-4.102,3.301c-1.1,0.3-2.1,0.101-2.7-0.399
						c-0.898-0.801-1.398-1.898-1.898-3.398C300.8,603,300.5,600.1,300.5,595.802z"/>
					<path style="fill:#B29652;" d="M331.3,601.1c-0.3,2.398-0.7,4.5-1.103,6.398c-1.299,5.2-4,10-7.897,14.102
						c-4,4.2-9,6.898-15.2,7.898c-3.2,0.5-6,0.602-8.5,0.5l217.9,36.802c0.1,0.101,0.1,0.198,0.301,0.198
						c2.799,0.802,6.299,1.103,10.398,0.603c0.9-0.103,1.701-0.2,2.701-0.4c6.1-1,11.199-3.5,15.1-7.699
						c0.1-0.199,1.5-2.398,4-6.898l-213.2-29.302l66.2-73.199l-69.9-10.301v45.6C332.1,591.5,331.9,596.7,331.3,601.1z"/>
					<path style="fill:none;stroke:#B29652;stroke-linecap:round;stroke-linejoin:round;" d="M311.1,597.7
						c-0.199,3.3-0.6,5.7-1.3,7.3c-0.899,2-2.3,3.102-4.102,3.302c-1.1,0.3-2.1,0.101-2.698-0.399c-0.9-0.801-1.4-1.898-1.9-3.398
						c-0.3-1.5-0.6-4.4-0.6-8.7"/>
					<path style="fill:none;stroke:#B29652;stroke-linecap:round;stroke-linejoin:round;" d="M298.6,630c2.5,0.102,5.3,0,8.5-0.5
						c6.2-1,11.2-3.698,15.2-7.898c3.897-4.102,6.601-8.899,7.897-14.102c0.4-1.898,0.803-4,1.103-6.398
						c0.601-4.399,0.8-9.602,0.8-15.699v-45.601l-21,3.5v51.6c0,0.899,0,1.8,0,2.8"/>
					
						<line style="fill:none;stroke:#B29652;stroke-linecap:round;stroke-linejoin:round;" x1="311.1" y1="597.7" x2="300.5" y2="595.802"/>
					
						<line style="fill:none;stroke:#B29652;stroke-linecap:round;stroke-linejoin:round;" x1="298.6" y1="630" x2="516.5" y2="666.802"/>
					<path style="fill:none;stroke:#B29652;stroke-linecap:round;stroke-linejoin:round;" d="M300.5,595.802l-20.202,6.8
						c0.3,7.101,1.5,12.801,3.5,17c1.9,4.101,4.7,7.101,8.3,8.801c1.8,0.8,4,1.399,6.5,1.602"/>
					
						<line style="fill:none;stroke:#FDD000;stroke-linecap:round;stroke-linejoin:round;" x1="402" y1="550.101" x2="332.1" y2="539.802"/>
				</g>
				<g>
					<path style="fill:#B29652;" d="M708,633.802l1.9-6.7l-51.9-6.9l-0.1,0.301v-0.301l-146.001-19.5l-1.397-4.6l-22.2-2.899
						l-3.103,10.899L708,633.802z"/>
					<path style="fill:#B29652;" d="M657.9,620.2h0.1l51.9,6.899l24.699,3.4l21.699-2.9L533.6,598l-21.7,2.7L657.9,620.2z"/>
					<path style="fill:#B29652;" d="M668.801,638.802l1.5-4.5l-206.299-27.5l22.1-64.399l-16.699-2.3L446,609.1L668.801,638.802z"/>
					<path style="fill:#B29652;" d="M670.301,634.302l16.5,2.3l21.199-2.8l-222.801-29.7l-21.197,2.7L670.301,634.302z"/>
					<path style="fill:#B29652;" d="M628.1,644l-1.799-5L423.9,612l-21.8-57.897l-20.4-2.801l23.701,63L628.1,644z"/>
					<path style="fill:#B29652;" d="M626.301,639l20.299,2.603l22.201-2.801L446,609.1L423.9,612L626.301,639z"/>
					<path style="fill:#B29652;" d="M606.4,646.802L628.1,644l-222.7-29.698l-21.801,2.8l198,26.501L606.4,646.802z"/>
					<path style="fill:#B29652;" d="M756.301,627.6l-23.602-63L509.9,535l23.7,63L756.301,627.6z"/>
					<path style="fill:#FDD000;" d="M509.9,535l-22.201,2.802l-1.6,4.601L464,606.802l21.197-2.7l3.103-10.9l20.5-2.601l1.7,5.5
						l1.397,4.601L533.6,598L509.9,535z M498.1,556.4l0.5-1.601l0.5,1.801l5.4,18.699l-11.9,1.601L498.1,556.4z"/>
					<path style="fill:#B29652;" d="M499.1,556.601l-1-0.2l-5.5,20.5l11.9-1.601L499.1,556.601z"/>
					<path style="fill:#FDD000;" d="M469.4,540.101l-21.1,2.699l-1.899,6.801L435.1,590.7l-13.3-44.5l-21.7,2.8l2,5.103L423.9,612
						L446,609.1L469.4,540.101z"/>
					<path style="fill:#B29652;" d="M488.3,593.2l22.2,2.899l-1.7-5.5L488.3,593.2z"/>
					<path style="fill:#B29652;" d="M360.1,609.6L360.1,609.6l22.2,3L380.6,607L360.1,609.6z"/>
					<path style="fill:#B29652;" d="M360.1,609.6L357,620.5l222.8,29.7l1.799-6.6l-198-26.501l-1.3-4.5L360.1,609.6z"/>
					<path style="fill:#FDD000;" d="M360.1,609.6L360.1,609.6L380.6,607l1.7,5.602l1.3,4.5l21.801-2.8l-23.701-63l-22.197,2.898
						l-23.7,69l21.2-2.7L360.1,609.6z M364.5,593.2l5.898-22l5.899,20.5L364.5,593.2z"/>
					<path style="fill:#B29652;" d="M370.4,571.2l-5.898,22l11.8-1.5L370.4,571.2z"/>
					<path style="fill:#B29652;" d="M421.8,546.2l13.3,44.5l11.301-41.1L421.8,546.2z"/>
					<path style="fill:#B29652;" d="M357,620.5l-21.2,2.7l209.7,28l13.1,1.8l21.201-2.8L357,620.5z"/>
					<polyline style="fill:none;stroke:#000000;stroke-linecap:round;stroke-linejoin:round;" points="657.9,620.5 657.9,620.2 
						658,620.2 657.9,620.5 					"/>
					
						<line style="fill:none;stroke:#000000;stroke-linecap:round;stroke-linejoin:round;" x1="499.1" y1="556.601" x2="498.1" y2="556.4"/>
					
						<line style="fill:none;stroke:#000000;stroke-linecap:round;stroke-linejoin:round;" x1="360.1" y1="609.6" x2="360.1" y2="609.6"/>
					<polyline style="fill:none;stroke:#B29652;stroke-linecap:round;stroke-linejoin:round;" points="498.6,554.802 499.1,556.601 
						504.5,575.302 492.6,576.9 498.1,556.4 498.6,554.802 					"/>
					<polyline style="fill:none;stroke:#B29652;stroke-linecap:round;stroke-linejoin:round;" points="487.699,537.802 486.1,542.4 
						464,606.802 485.199,604.1 488.3,593.2 508.8,590.6 510.5,596.1 511.899,600.7 533.6,598 509.9,535 487.699,537.802 					"/>
					<polyline style="fill:none;stroke:#B29652;stroke-linecap:round;stroke-linejoin:round;" points="448.3,542.802 446.4,549.601 
						435.1,590.7 421.8,546.2 400.1,549 402.1,554.101 423.9,612 446,609.1 469.4,540.101 448.3,542.802 					"/>
					<polyline style="fill:none;stroke:#B29652;stroke-linecap:round;stroke-linejoin:round;" points="370.4,571.2 376.3,591.7 
						364.5,593.2 370.4,571.2 					"/>
					<path style="fill:none;stroke:#B29652;stroke-linecap:round;stroke-linejoin:round;" d="M516.5,657.5c0.1,0,0.1,0,0.301,0
						c2.799,0.7,6.299,0.802,10.398,0.603c0.9-0.103,1.701-0.301,2.701-0.4c6.1-0.698,11.199-2.8,15.1-6.1
						c0.1-0.103,0.4-0.301,0.5-0.4l13.1,1.802l21.201-2.802l1.799-6.6l24.801,3.199L628.1,644l-1.799-5l20.299,2.603l22.201-2.801
						l1.5-4.5l16.5,2.3l21.199-2.8l1.9-6.7L734.6,630.5l21.699-2.898l-23.602-63"/>
					<polyline style="fill:none;stroke:#B29652;stroke-linecap:round;stroke-linejoin:round;" points="360.1,609.6 357,620.5 
						335.8,623.2 359.5,554.2 381.699,551.302 405.4,614.302 383.6,617.1 382.3,612.6 380.6,607 360.1,609.6 					"/>
					
						<line style="fill:none;stroke:#FDD000;stroke-linecap:round;stroke-linejoin:round;" x1="709.9" y1="627.1" x2="658" y2="620.2"/>
					
						<line style="fill:none;stroke:#FDD000;stroke-linecap:round;stroke-linejoin:round;" x1="402.1" y1="554.101" x2="381.699" y2="551.302"/>
					
						<line style="fill:none;stroke:#FDD000;stroke-linecap:round;stroke-linejoin:round;" x1="510.5" y1="596.1" x2="488.3" y2="593.2"/>
					
						<line style="fill:none;stroke:#FDD000;stroke-linecap:round;stroke-linejoin:round;" x1="486.1" y1="542.4" x2="469.4" y2="540.101"/>
					
						<line style="fill:none;stroke:#FDD000;stroke-linecap:round;stroke-linejoin:round;" x1="382.3" y1="612.6" x2="360.1" y2="609.6"/>
					
						<line style="fill:none;stroke:#FDD000;stroke-linecap:round;stroke-linejoin:round;" x1="335.8" y1="623.2" x2="545.5" y2="651.2"/>
					
						<line style="fill:none;stroke:#FDD000;stroke-linecap:round;stroke-linejoin:round;" x1="357" y1="620.5" x2="579.801" y2="650.2"/>
					
						<line style="fill:none;stroke:#FDD000;stroke-linecap:round;stroke-linejoin:round;" x1="383.6" y1="617.1" x2="581.6" y2="643.601"/>
					
						<line style="fill:none;stroke:#FDD000;stroke-linecap:round;stroke-linejoin:round;" x1="446.4" y1="549.601" x2="421.8" y2="546.2"/>
					
						<line style="fill:none;stroke:#FDD000;stroke-linecap:round;stroke-linejoin:round;" x1="464" y1="606.802" x2="670.301" y2="634.302"/>
					
						<line style="fill:none;stroke:#FDD000;stroke-linecap:round;stroke-linejoin:round;" x1="423.9" y1="612" x2="626.301" y2="639"/>
					
						<line style="fill:none;stroke:#FDD000;stroke-linecap:round;stroke-linejoin:round;" x1="628.1" y1="644" x2="405.4" y2="614.302"/>
					
						<line style="fill:none;stroke:#FDD000;stroke-linecap:round;stroke-linejoin:round;" x1="756.301" y1="627.6" x2="533.6" y2="598"/>
					
						<line style="fill:none;stroke:#FDD000;stroke-linecap:round;stroke-linejoin:round;" x1="657.9" y1="620.2" x2="511.899" y2="600.7"/>
					
						<line style="fill:none;stroke:#FDD000;stroke-linecap:round;stroke-linejoin:round;" x1="485.199" y1="604.1" x2="708" y2="633.802"/>
					
						<line style="fill:none;stroke:#FDD000;stroke-linecap:round;stroke-linejoin:round;" x1="668.801" y1="638.802" x2="446" y2="609.1"/>
					
						<line style="fill:none;stroke:#FDD000;stroke-linecap:round;stroke-linejoin:round;" x1="732.699" y1="564.6" x2="509.9" y2="535"/>
				</g>
			</g>
			<g>
				<path style="fill:#B29652;" d="M810.801,634.7v-8.898L810,625.7l-243.6-31.1l0,0h0.1v9.2l243.5,31L810.801,634.7z"/>
				<path style="fill:#FDD000;" d="M253.8,635.1V644l0.8,0.103l311.8-40.301V603.7v-9.1L254.6,635L253.8,635.1z"/>
				<path style="fill:#B29652;" d="M566.5,603.802h-0.1l-311.8,40.301l243.5,31l0,0L810,634.802L566.5,603.802z"/>
				<polyline style="fill:none;stroke:#000000;stroke-linecap:round;stroke-linejoin:round;" points="566.4,594.6 566.5,594.6 
					566.5,603.802 				"/>
				<polyline style="fill:none;stroke:#000000;stroke-linecap:round;stroke-linejoin:round;" points="810.801,625.6 
					810.801,625.802 810,625.7 810.801,625.6 				"/>
				<polyline style="fill:none;stroke:#000000;stroke-linecap:round;stroke-linejoin:round;" points="810.801,635 810,634.802 
					810.801,634.7 810.801,635 				"/>
				<polyline style="fill:none;stroke:#000000;stroke-linecap:round;stroke-linejoin:round;" points="253.8,644.101 254.6,644.101 
					253.8,644 253.8,644.101 				"/>
				
					<line style="fill:none;stroke:#000000;stroke-linecap:round;stroke-linejoin:round;" x1="566.5" y1="603.802" x2="566.4" y2="603.802"/>
				<polyline style="fill:none;stroke:#000000;stroke-linecap:round;stroke-linejoin:round;" points="253.8,634.802 254.6,635 
					253.8,635.1 253.8,634.802 				"/>
				
					<line style="fill:none;stroke:#000000;stroke-linecap:round;stroke-linejoin:round;" x1="566.4" y1="603.7" x2="566.5" y2="603.802"/>
				
					<line style="fill:none;stroke:#B29652;stroke-linecap:round;stroke-linejoin:round;" x1="253.8" y1="635.1" x2="253.8" y2="644"/>
				<polyline style="fill:none;stroke:#B29652;stroke-linecap:round;stroke-linejoin:round;" points="566.4,603.802 254.6,644.101 
					498.1,675.101 498.1,675.101 810,634.802 				"/>
				
					<line style="fill:none;stroke:#B29652;stroke-linecap:round;stroke-linejoin:round;" x1="810.801" y1="634.7" x2="810.801" y2="625.802"/>
				<polyline style="fill:none;stroke:#B29652;stroke-linecap:round;stroke-linejoin:round;" points="254.6,635 566.4,594.6 
					566.4,603.7 				"/>
				
					<line style="fill:none;stroke:#FDD000;stroke-linecap:round;stroke-linejoin:round;" x1="810" y1="634.802" x2="566.5" y2="603.802"/>
				<polyline style="fill:none;stroke:#FDD000;stroke-linecap:round;stroke-linejoin:round;" points="810,625.7 566.4,594.6 
					566.4,594.6 				"/>
			</g>
			<g>
				<path style="fill:#B29652;" d="M615.801,742.7c4,0,7.699-0.2,11.1-0.6c6-0.801,11.1-2.301,15.199-4.5c2.6-1.4,5-3.301,7.4-5.801
					l-229.9-29.3V629l-13.9-1.898v45.8c0,1.399-0.1,2.8-0.197,4.3c-0.303,3-0.9,6-1.803,8.9c-1.299,4.199-3.299,8.1-6.1,11.5
					c-2.9,3.5-5.8,6-9,7.6c-4.199,2.301-9.199,3.801-15.199,4.5c-3.5,0.5-7.201,0.7-11.201,0.7c-0.697,0-1.397,0-2.197-0.101
					L572.4,737.5l38.5,4.801c0.4,0.199,1,0.199,1.5,0.301C613.5,742.601,614.6,742.7,615.801,742.7z"/>
				<path style="fill:#B29652;" d="M649.5,731.802l23.6,3l23.301-3l-253.599-32.199l-23.2,2.898L649.5,731.802z"/>
				<path style="fill:#B29652;" d="M748.1,725.2l-1-1.7L501.3,692.101v-39.5l-33-4l26.3,44.3L748.1,725.2z"/>
				<path style="fill:#B29652;" d="M747.1,723.5l7.801,1l60.1-7.8l-253.6-32.2l-60.099,7.603L747.1,723.5z"/>
				<path style="fill:#B29652;" d="M696.4,731.802V725.7l-229.6-29.2l-6.7-13.698l-17.3-2.199v19L696.4,731.802z"/>
				<path style="fill:#B29652;" d="M696.4,725.7l24,3.102L748.1,725.2l-253.5-32.3l-27.8,3.6L696.4,725.7z"/>
				<path style="fill:#B29652;" d="M813.9,657.9v-18.2l-17.801-2.2l-235.699-30V625.6L813.9,657.9z"/>
				<path style="fill:#B29652;" d="M778.1,663.7v-1.3l-253.5-32.3v9.801l33.201-4.2L778.1,663.7z"/>
				<path style="fill:#B29652;" d="M778.1,693v-3.397l-253.5-32.301v12.301l1.701,0.199l35.1-4.5L778.1,693z"/>
				<path style="fill:#B29652;" d="M811.4,685.4V668l-33.301-4.3l-220.301-28v17.4L811.4,685.4z"/>
				<path style="fill:#B29652;" d="M815,697.601L778.1,693L561.4,665.302V684.5L815,716.7V697.601z"/>
				<path style="fill:#B29652;" d="M778.1,689.601l33.301-4.2l-253.6-32.3l-33.201,4.199L778.1,689.601z"/>
				<path style="fill:#B29652;" d="M778.1,662.4l35.801-4.5l-253.5-32.3l-35.801,4.5L778.1,662.4z"/>
				<path style="fill:#B29652;" d="M319.4,649.302c2.602,3.301,4.5,7.198,5.699,11.698c0.5,2,0.898,4,1.2,6.103
					c0.3,2.699,0.5,5.6,0.5,8.5c0,8.1-0.802,14.6-2.603,19.397c-1.699,4.7-4.1,8.802-7.199,12.302c-3.099,3.5-6.398,6-10,7.5
					c-4.8,2-9,3.301-12.898,3.801l-32.7,4.199L515,755.101l32.6-4.2c3.9-0.398,8.201-1.8,12.9-3.8c3.6-1.5,7-4,10-7.4
					c0.699-0.698,1.301-1.5,1.9-2.198L360,710.302c-1.4-0.102-2.7-0.199-3.9-0.5c-1.5-0.302-2.9-0.699-4.1-1.199
					c-2.803-1.301-5.4-3.2-7.602-5.801c-2.301-2.602-3.898-5.5-4.701-8.5c-1.299-4.699-2.1-8.802-2.1-12.699v-36l-30.4-3.9
					c0.803,0.2,1.603,0.4,2.4,0.602C313.5,643.7,316.9,646.101,319.4,649.302z"/>
				<path style="fill:#FDD000;" d="M325.1,661c-1.199-4.5-3.1-8.397-5.699-11.698c-2.5-3.199-5.898-5.602-9.801-7
					c-0.8-0.199-1.6-0.399-2.4-0.602c-3.6-0.8-8-0.898-13.1-0.2l-32.7,4.103v77.199l32.7-4.199c3.9-0.5,8.1-1.801,12.9-3.801
					c3.6-1.5,6.898-4,10-7.5c3.1-3.5,5.5-7.602,7.197-12.302c1.803-4.8,2.603-11.3,2.603-19.397c0-2.9-0.2-5.801-0.5-8.5
					C326,665,325.6,663,325.1,661z M300,663.7c0.1,0,0.1,0.102,0.1,0.102c2.3,2.398,3.4,7.5,3.4,15.198c0,5.802-0.5,10.103-1.5,12.7
					c-1,2.601-2.4,4.5-4.102,5.8c-1.7,1.103-4.7,2-9,2.603l-4.3,0.5v-38.9l4.4-0.5C294.1,660.601,297.8,661.4,300,663.7z"/>
				<path style="fill:#B29652;" d="M300.1,663.802c0,0,0-0.102-0.1-0.102l-15.4-2v38.9l4.3-0.5c4.3-0.601,7.3-1.5,9-2.601
					c1.7-1.302,3.102-3.2,4.102-5.802c1-2.6,1.5-6.898,1.5-12.698C303.5,671.302,302.4,666.2,300.1,663.802z"/>
				<path style="fill:#B29652;" d="M289,661.2l-4.4,0.5l15.4,2C297.8,661.4,294.1,660.601,289,661.2z"/>
				<path style="fill:#FDD000;" d="M501.3,615v2v35.603v39.5l60.1-7.603v-19.198l-35.102,4.5L524.6,670v-0.397v-12.301l33.199-4.199
					v-17.4l-33.199,4.2V630.1l35.801-4.5V607.5L501.3,615z"/>
				<path style="fill:#B29652;" d="M501.3,617l-7.8-1l-25.2,32.603l33,4V617z"/>
				<path style="fill:#B29652;" d="M442.8,650.7l17.601-26l-17.601-2.3V650.7z"/>
				<path style="fill:#FDD000;" d="M460.4,624.7l-17.601,26v-28.3l-23.2,3v3.6v73.5l23.2-2.897v-19l9.8-13.103l7.5,15.302
					l6.7,13.698l27.8-3.6l-26.3-44.3L493.5,616l-29.803,3.7L460.4,624.7z"/>
				<path style="fill:#FDD000;" d="M403.699,686.101c0.9-2.9,1.5-5.9,1.803-8.9c0.1-1.5,0.197-2.898,0.197-4.3V627.1l-23.197,3v5.5
					V677c0,3.802-0.9,7-2.9,9.2c-1.8,2.4-4.5,3.8-8,4.2c-3.4,0.399-6-0.3-7.9-2.101c-1.799-1.899-2.799-4.699-2.799-8.602v-46.8
					l-23.301,2.901v9.801v36c0,3.897,0.801,8,2.1,12.699c0.803,3,2.4,5.898,4.701,8.5c2.199,2.601,4.799,4.5,7.602,5.801
					c1.197,0.5,2.6,0.897,4.1,1.199c1.2,0.301,2.5,0.398,3.9,0.5c0.8,0.101,1.5,0.101,2.197,0.101c4,0,7.701-0.2,11.201-0.7
					c6-0.698,11-2.198,15.199-4.5c3.2-1.6,6.1-4.1,9-7.6C400.4,694.2,402.4,690.302,403.699,686.101z"/>
				<path style="fill:#B29652;" d="M442.8,680.601l17.3,2.199l-7.5-15.302L442.8,680.601z"/>
				<path style="fill:#B29652;" d="M360.9,679.7c0,3.9,1,6.7,2.799,8.602c1.9,1.801,4.5,2.5,7.9,2.101c3.5-0.398,6.2-1.8,8-4.2
					c2-2.198,2.898-5.398,2.898-9.198v-41.4l-21.6-2.699L360.9,679.7L360.9,679.7z"/>
				<path style="fill:none;stroke:#B29652;stroke-linecap:round;stroke-linejoin:round;" d="M261.4,722.802l253.6,32.3l32.6-4.2
					c3.9-0.398,8.201-1.8,12.9-3.8c3.6-1.5,7-4,10-7.4c0.699-0.698,1.301-1.5,1.9-2.198l38.5,4.8c0.398,0.2,1,0.2,1.5,0.301
					c1.1,0,2.199,0.1,3.398,0.1c4,0,7.697-0.199,11.102-0.6c6-0.801,11.1-2.301,15.199-4.5c2.6-1.4,5-3.301,7.396-5.801l23.604,3
					l23.301-3v-6.102l24,3.102l27.699-3.602l-1-1.698l7.801,1l60.1-7.802v-19.1L778.1,693v-3.397l33.301-4.2V668l-33.301-4.3v-1.3
					l35.801-4.5"/>
				
					<line style="fill:none;stroke:#B29652;stroke-linecap:round;stroke-linejoin:round;" x1="526.301" y1="669.802" x2="524.6" y2="669.601"/>
				<path style="fill:none;stroke:#B29652;stroke-linecap:round;stroke-linejoin:round;" d="M300.1,663.802
					c2.3,2.398,3.4,7.5,3.4,15.198c0,5.802-0.5,10.103-1.5,12.7c-1,2.601-2.4,4.5-4.102,5.8c-1.7,1.103-4.7,2-9,2.603l-4.3,0.5
					v-38.9l4.4-0.5c5.1-0.6,8.8,0.2,11,2.5C300.1,663.7,300.1,663.802,300.1,663.802"/>
				
					<line style="fill:none;stroke:#FDD000;stroke-linecap:round;stroke-linejoin:round;" x1="284.6" y1="661.7" x2="300" y2="663.7"/>
				<polyline style="fill:none;stroke:#FDD000;stroke-linecap:round;stroke-linejoin:round;" points="560.4,607.5 501.3,615 
					501.3,617 				"/>
				<line style="fill:none;stroke:#FDD000;stroke-linecap:round;stroke-linejoin:round;" x1="501.3" y1="617" x2="493.5" y2="616"/>
				<polyline style="fill:none;stroke:#FDD000;stroke-linecap:round;stroke-linejoin:round;" points="460.4,624.7 442.8,650.7 
					442.8,622.4 				"/>
				
					<line style="fill:none;stroke:#FDD000;stroke-linecap:round;stroke-linejoin:round;" x1="460.4" y1="624.7" x2="442.8" y2="622.4"/>
				<polyline style="fill:none;stroke:#FDD000;stroke-linecap:round;stroke-linejoin:round;" points="442.8,622.4 419.6,625.4 
					419.6,629 				"/>
				
					<line style="fill:none;stroke:#FDD000;stroke-linecap:round;stroke-linejoin:round;" x1="419.6" y1="629" x2="405.699" y2="627.1"/>
				<path style="fill:none;stroke:#FDD000;stroke-linecap:round;stroke-linejoin:round;" d="M360,710.302
					c0.8,0.101,1.5,0.101,2.197,0.101c4,0,7.701-0.2,11.201-0.7c6-0.698,11-2.198,15.199-4.5c3.2-1.6,6.1-4.1,9-7.6
					c2.801-3.4,4.801-7.301,6.1-11.5c0.9-2.9,1.5-5.9,1.803-8.9c0.1-1.5,0.197-2.898,0.197-4.3V627.1"/>
				
					<line style="fill:none;stroke:#FDD000;stroke-linecap:round;stroke-linejoin:round;" x1="442.8" y1="680.601" x2="460.1" y2="682.802"/>
				
					<line style="fill:none;stroke:#FDD000;stroke-linecap:round;stroke-linejoin:round;" x1="466.8" y1="696.5" x2="460.1" y2="682.802"/>
				<path style="fill:none;stroke:#FDD000;stroke-linecap:round;stroke-linejoin:round;" d="M307.199,641.7
					c-3.6-0.8-8-0.898-13.1-0.2l-32.7,4.103v77.199l32.7-4.199c3.9-0.5,8.1-1.801,12.898-3.801c3.602-1.5,6.9-4,10-7.5
					c3.102-3.5,5.5-7.602,7.199-12.302c1.801-4.8,2.603-11.3,2.603-19.397c0-2.9-0.2-5.801-0.5-8.5C326,665,325.6,663,325.1,661
					c-1.199-4.5-3.1-8.397-5.699-11.698c-2.5-3.199-5.898-5.602-9.801-7C308.8,642.101,308,641.9,307.199,641.7"/>
				
					<line style="fill:none;stroke:#FDD000;stroke-linecap:round;stroke-linejoin:round;" x1="442.8" y1="680.601" x2="442.8" y2="699.601"/>
				
					<line style="fill:none;stroke:#FDD000;stroke-linecap:round;stroke-linejoin:round;" x1="442.8" y1="699.601" x2="419.6" y2="702.5"/>
				
					<line style="fill:none;stroke:#FDD000;stroke-linecap:round;stroke-linejoin:round;" x1="419.6" y1="702.5" x2="419.6" y2="629"/>
				<polyline style="fill:none;stroke:#FDD000;stroke-linecap:round;stroke-linejoin:round;" points="405.699,627.1 382.5,630.1 
					382.5,635.6 				"/>
				<polyline style="fill:none;stroke:#FDD000;stroke-linecap:round;stroke-linejoin:round;" points="360.9,632.9 337.6,635.802 
					337.6,645.601 				"/>
				<path style="fill:none;stroke:#FDD000;stroke-linecap:round;stroke-linejoin:round;" d="M360.9,632.9v46.8
					c0,3.9,1,6.7,2.799,8.602c1.9,1.801,4.5,2.5,7.9,2.101c3.5-0.398,6.2-1.8,8-4.2c2-2.198,2.898-5.398,2.898-9.198v-41.4"/>
				<path style="fill:none;stroke:#FDD000;stroke-linecap:round;stroke-linejoin:round;" d="M360,710.302
					c-1.4-0.102-2.7-0.199-3.9-0.5c-1.5-0.302-2.9-0.699-4.1-1.199c-2.803-1.301-5.4-3.2-7.602-5.801
					c-2.301-2.602-3.898-5.5-4.701-8.5c-1.299-4.699-2.1-8.802-2.1-12.699v-36"/>
				
					<line style="fill:none;stroke:#FDD000;stroke-linecap:round;stroke-linejoin:round;" x1="382.5" y1="635.6" x2="360.9" y2="632.9"/>
				
					<line style="fill:none;stroke:#FDD000;stroke-linecap:round;stroke-linejoin:round;" x1="557.801" y1="635.7" x2="557.801" y2="653.101"/>
				
					<line style="fill:none;stroke:#FDD000;stroke-linecap:round;stroke-linejoin:round;" x1="561.4" y1="665.302" x2="561.4" y2="684.5"/>
				<polyline style="fill:none;stroke:#FDD000;stroke-linecap:round;stroke-linejoin:round;" points="524.6,630.1 524.6,639.9 
					557.801,635.7 				"/>
				<polyline style="fill:none;stroke:#FDD000;stroke-linecap:round;stroke-linejoin:round;" points="460.1,682.802 452.6,667.5 
					442.8,680.601 				"/>
				<polyline style="fill:none;stroke:#FDD000;stroke-linecap:round;stroke-linejoin:round;" points="524.6,657.302 524.6,669.601 
					524.6,670 526.301,669.802 561.4,665.302 				"/>
				
					<line style="fill:none;stroke:#FDD000;stroke-linecap:round;stroke-linejoin:round;" x1="501.3" y1="692.101" x2="501.3" y2="652.601"/>
				
					<line style="fill:none;stroke:#FDD000;stroke-linecap:round;stroke-linejoin:round;" x1="561.4" y1="684.5" x2="501.3" y2="692.101"/>
				
					<line style="fill:none;stroke:#FDD000;stroke-linecap:round;stroke-linejoin:round;" x1="560.4" y1="625.6" x2="524.6" y2="630.1"/>
				
					<line style="fill:none;stroke:#FDD000;stroke-linecap:round;stroke-linejoin:round;" x1="557.801" y1="653.101" x2="524.6" y2="657.302"/>
				
					<line style="fill:none;stroke:#FDD000;stroke-linecap:round;stroke-linejoin:round;" x1="468.3" y1="648.601" x2="501.3" y2="652.601"/>
				
					<line style="fill:none;stroke:#FDD000;stroke-linecap:round;stroke-linejoin:round;" x1="501.3" y1="652.601" x2="501.3" y2="617"/>
				
					<line style="fill:none;stroke:#FDD000;stroke-linecap:round;stroke-linejoin:round;" x1="560.4" y1="607.5" x2="560.4" y2="625.6"/>
				
					<line style="fill:none;stroke:#FDD000;stroke-linecap:round;stroke-linejoin:round;" x1="493.5" y1="616" x2="468.3" y2="648.601"/>
				
					<line style="fill:none;stroke:#FDD000;stroke-linecap:round;stroke-linejoin:round;" x1="468.3" y1="648.601" x2="494.6" y2="692.9"/>
				
					<line style="fill:none;stroke:#FDD000;stroke-linecap:round;stroke-linejoin:round;" x1="494.6" y1="692.9" x2="466.8" y2="696.5"/>
				
					<line style="fill:none;stroke:#FDD000;stroke-linecap:round;stroke-linejoin:round;" x1="572.4" y1="737.5" x2="360" y2="710.302"/>
				<polyline style="fill:none;stroke:#FDD000;stroke-linecap:round;stroke-linejoin:round;" points="493.5,616 463.699,619.7 
					460.4,624.7 				"/>
				
					<line style="fill:none;stroke:#FDD000;stroke-linecap:round;stroke-linejoin:round;" x1="337.6" y1="645.601" x2="307.199" y2="641.7"/>
				
					<line style="fill:none;stroke:#FDD000;stroke-linecap:round;stroke-linejoin:round;" x1="696.4" y1="731.802" x2="442.8" y2="699.601"/>
				
					<line style="fill:none;stroke:#FDD000;stroke-linecap:round;stroke-linejoin:round;" x1="419.6" y1="702.5" x2="649.5" y2="731.802"/>
				
					<line style="fill:none;stroke:#FDD000;stroke-linecap:round;stroke-linejoin:round;" x1="501.3" y1="692.101" x2="747.1" y2="723.5"/>
				
					<line style="fill:none;stroke:#FDD000;stroke-linecap:round;stroke-linejoin:round;" x1="748.1" y1="725.2" x2="494.6" y2="692.9"/>
				
					<line style="fill:none;stroke:#FDD000;stroke-linecap:round;stroke-linejoin:round;" x1="466.8" y1="696.5" x2="696.4" y2="725.7"/>
				
					<line style="fill:none;stroke:#FDD000;stroke-linecap:round;stroke-linejoin:round;" x1="560.4" y1="625.6" x2="813.9" y2="657.9"/>
				
					<line style="fill:none;stroke:#FDD000;stroke-linecap:round;stroke-linejoin:round;" x1="778.1" y1="662.4" x2="524.6" y2="630.1"/>
				
					<line style="fill:none;stroke:#FDD000;stroke-linecap:round;stroke-linejoin:round;" x1="524.6" y1="657.302" x2="778.1" y2="689.601"/>
				
					<line style="fill:none;stroke:#FDD000;stroke-linecap:round;stroke-linejoin:round;" x1="561.4" y1="684.5" x2="815" y2="716.7"/>
				
					<line style="fill:none;stroke:#FDD000;stroke-linecap:round;stroke-linejoin:round;" x1="557.801" y1="653.101" x2="811.4" y2="685.4"/>
				
					<line style="fill:none;stroke:#FDD000;stroke-linecap:round;stroke-linejoin:round;" x1="561.4" y1="665.302" x2="778.1" y2="693"/>
				
					<line style="fill:none;stroke:#FDD000;stroke-linecap:round;stroke-linejoin:round;" x1="557.801" y1="635.7" x2="778.1" y2="663.7"/>
				
					<line style="fill:none;stroke:#FDD000;stroke-linecap:round;stroke-linejoin:round;" x1="796.1" y1="637.5" x2="560.4" y2="607.5"/>
			</g>
			<g>
				<path style="fill:#B29652;" d="M825.801,733.4v-16.6l-258.201-33l0,0v16.6L825.801,733.4z"/>
				<path style="fill:#FDD000;" d="M240.1,726.101v16.6l0,0l327.5-42.198v-0.102h-0.1v-16.601L240.1,726.101L240.1,726.101z"/>
				<path style="fill:#B29652;" d="M567.6,700.4v0.1l-327.5,42.2l258.301,33l327.4-42.3L567.6,700.4z"/>
				
					<line style="fill:none;stroke:#000000;stroke-linecap:round;stroke-linejoin:round;" x1="825.801" y1="716.802" x2="825.801" y2="733.4"/>
				
					<line style="fill:none;stroke:#000000;stroke-linecap:round;stroke-linejoin:round;" x1="567.5" y1="683.802" x2="567.6" y2="683.802"/>
				<polyline style="fill:none;stroke:#000000;stroke-linecap:round;stroke-linejoin:round;" points="567.6,700.4 567.5,700.4 
					567.5,683.802 				"/>
				<polyline style="fill:none;stroke:#000000;stroke-linecap:round;stroke-linejoin:round;" points="240.1,742.7 240,742.7 
					240,726.101 240.1,726.101 				"/>
				<polyline style="fill:none;stroke:#000000;stroke-linecap:round;stroke-linejoin:round;" points="240.1,726.101 240.1,726.101 
					240.1,726.101 				"/>
				<polyline style="fill:none;stroke:#000000;stroke-linecap:round;stroke-linejoin:round;" points="567.5,683.802 567.5,683.802 
					567.6,683.802 				"/>
				<polyline style="fill:none;stroke:#B29652;stroke-linecap:round;stroke-linejoin:round;" points="240.1,742.7 498.4,775.7 
					825.801,733.4 825.801,716.802 				"/>
				
					<line style="fill:none;stroke:#B29652;stroke-linecap:round;stroke-linejoin:round;" x1="240.1" y1="726.101" x2="567.5" y2="683.802"/>
				
					<line style="fill:none;stroke:#FDD000;stroke-linecap:round;stroke-linejoin:round;" x1="567.6" y1="683.802" x2="567.6" y2="700.4"/>
				
					<line style="fill:none;stroke:#FDD000;stroke-linecap:round;stroke-linejoin:round;" x1="825.801" y1="733.4" x2="567.6" y2="700.4"/>
				
					<line style="fill:none;stroke:#FDD000;stroke-linecap:round;stroke-linejoin:round;" x1="567.6" y1="683.802" x2="825.801" y2="716.802"/>
				<polyline style="fill:none;stroke:#FDD000;stroke-linecap:round;stroke-linejoin:round;" points="240.1,726.101 240.1,742.7 
					240.1,742.7 567.6,700.5 567.6,700.4 				"/>
			</g>
			<g>
				<path style="fill:#B29652;" d="M823.301,745.302l-6.602-9.5L565.4,703.7l0,0h0.1v9.102l2,0.301L807.1,743.5L823.301,745.302z"/>
				<path style="fill:#B29652;" d="M823.801,745.802L807.1,743.5l-239.6-30.397l-2-0.2v94.399v1v31.3h258.301V745.802z"/>
				<path style="fill:#FDD000;" d="M565.5,712.9v-0.1h-0.1V703.7l-318.301,40.9L238.8,755l2.6-0.3L565.5,712.9z"/>
				<path style="fill:#FDD000;" d="M565.5,808.302v-1v-94.4l-324.1,41.8l-3.4,0.5v94.4l327.5-10V808.302z"/>
				<polyline style="fill:none;stroke:#000000;stroke-linecap:round;stroke-linejoin:round;" points="565.5,712.9 565.5,712.802 
					565.5,712.802 				"/>
				
					<line style="fill:none;stroke:#000000;stroke-linecap:round;stroke-linejoin:round;" x1="565.5" y1="712.802" x2="565.4" y2="712.802"/>
				<polyline style="fill:none;stroke:#000000;stroke-linecap:round;stroke-linejoin:round;" points="565.5,712.9 565.5,712.9 
					565.5,712.802 				"/>
				
					<line style="fill:none;stroke:#000000;stroke-linecap:round;stroke-linejoin:round;" x1="565.4" y1="703.7" x2="565.5" y2="703.7"/>
				
					<line style="fill:none;stroke:#000000;stroke-linecap:round;stroke-linejoin:round;" x1="565.5" y1="712.802" x2="565.5" y2="712.9"/>
				
					<line style="fill:none;stroke:#000000;stroke-linecap:round;stroke-linejoin:round;" x1="567.5" y1="713.101" x2="565.5" y2="712.9"/>
				<polyline style="fill:none;stroke:#B29652;stroke-linecap:round;stroke-linejoin:round;" points="565.5,839.6 823.801,839.6 
					823.801,745.802 807.1,743.5 				"/>
				<polyline style="fill:none;stroke:#B29652;stroke-linecap:round;stroke-linejoin:round;" points="823.301,745.302 
					816.699,735.802 565.4,703.7 565.4,703.7 				"/>
				<polyline style="fill:none;stroke:#B29652;stroke-linecap:round;stroke-linejoin:round;" points="565.4,703.7 247.1,744.601 
					238.8,755 241.4,754.7 565.5,712.9 				"/>
				<polyline style="fill:none;stroke:#FDD000;stroke-linecap:round;stroke-linejoin:round;" points="565.5,712.802 567.5,713.101 
					807.1,743.5 823.301,745.302 				"/>
				<polyline style="fill:none;stroke:#FDD000;stroke-linecap:round;stroke-linejoin:round;" points="241.4,754.7 238,755.2 
					238,849.6 565.5,839.6 565.5,808.302 				"/>
				<polyline style="fill:none;stroke:#FDD000;stroke-linecap:round;stroke-linejoin:round;" points="565.5,808.302 565.5,807.302 
					565.5,808.302 				"/>
			</g>
		</g>
	</g>
</g>
<g id="jfx:p09">
	<g>
		<g>
			<g>
				<path d="M338.3,43.8c-3.899,0-8.103,7-12.399,20.9c-1.301,3.7-2.898,9.2-5,16.6c-1.898,6-3.398,10-4.601,12.2h-0.7v-4.2
					c0.898-1.898,1.6-4.698,2-8.5c0.5-3.8,0.801-8.5,0.801-14.3c0-4-1.101-10.6-3.301-19.7c-1-16.198-8.5-23.198-22.5-21
					c-3,0.5-5.5,2-7.6,4.5c-1.9,2.102-3.4,4.5-4.4,7.2l-0.8,0.3l2.8,32.602v6.3c0,4.101,0,7.2-0.1,9.4
					C280.6,81.3,278.7,76.8,277,72.8c-3.1-6.898-6.1-12.5-8.9-17C261.9,45.9,255.8,40.9,249.8,41c-5.6,0-10.2,1.9-14,5.602
					c-3.3,3.198-4.9,6.398-4.9,9.8c0,0,1.8,6.398,5.6,19c4.4,22.6,6.5,40.7,6.3,54.3c-0.3,13.601,0.8,23.2,3.3,28.9
					c2.4,5.698,8.7,11.6,18.9,17.6c6.2,3.601,12,5.8,17.3,6.5c1.6,1.601,2.8,3.4,3.8,5.601c1.9,3.899,3,9.601,3.4,17
					c0.1,4.199,0.3,10.801,0.3,19.801c0.2,7.898,1.1,14.199,2.7,18.8c1.7,5.1,4.9,10.3,9.4,15.5c5,5.9,10.5,10.2,16.5,13.2
					c2.101,1,9.199,3.8,21.101,8.3c12.399,4.7,19.101,7.1,20.101,7.1c0.801,0,1.5-0.398,2-1.198c0.399-0.9,0.7-1.4,0.899-1.602v-9.8
					h-1.4c-30.102-6-49.4-17-58-33.3c-2.9-5.5-4.602-11.8-5.1-19c-0.1-2.3-0.2-5.102-0.1-8.102c0.1-3.1,0.2-5.198,0.2-6.5
					c0-6.198,1-11.1,3.2-14.698c0.8-1.5,2.2-3.5,4.1-5.9c1.7-2.1,3.102-3.9,4.102-5.3c0.3,0,0.5,0,0.697-0.102
					c4.4-0.8,9.803-4.398,15.9-10.8c6.2-6.398,12.2-9.898,17.898-10.5l5.102-1.3c1.801,0,3.5,0,5.5,0.2
					c3,0.198,6.301,0.698,10,1.198c6,1,9.301,1.4,9.801,1.4c2.5,0,4.799-1.4,7-4.2c2.299-3.2,3.5-7,3.5-11.5
					c0-6.2-3.101-11.7-9.101-16.398c-5.5-4.2-10.802-6.302-16.2-6.302c-1.8,0-3.199,0.2-4.102,0.7l-0.898-0.398
					c2-3.802,3.898-10.7,5.801-20.602c1.799-10.2,2.699-18.5,2.699-24.898c0-12.2-1.602-21-4.8-26.2
					C354.5,46.8,347.9,43.8,338.3,43.8z"/>
			</g>
			<g>
				<path d="M699.5,205.8c-15.4-16.8-29.699-29.698-43.1-38.5c-13.5-8.8-24.801-15.6-33.801-20.5c-9-4.8-16.4-9-22.104-12.5
					c-7.396-4.6-12.801-9-16.197-13.198c-3.699-4.602-5.5-9.7-5.5-15.2c0-2.7,1-5.102,3-7c-8.398,2.398-21.803,8.2-40.199,17.6
					c-18.699,9.602-38.101,20.602-58.101,33c-22.302,13.801-41.5,26.9-57.699,39.5c-18.7,14.301-31.7,26.7-39,36.9
					C369.5,244.6,356,261,346.4,275.1c10.102-1.5,21.399-2.8,33.899-4.102c28.101-2.7,57.5-4.1,88-4.1
					c39.698,0,104.8,9.5,195.5,28.5c32.301,6.7,64.5,14,96.602,21.898l0.699-0.3l0,0c-5-16.7-11.801-33.5-20.301-50.1
					C728.6,243,714.801,222.7,699.5,205.8z"/>
				
					<radialGradient id="SVGID_12_" cx="1433.8691" cy="5897.5449" r="819.1982" gradientTransform="matrix(0.6309 0.103 -0.0759 0.4652 -41.9178 -2551.2507)" gradientUnits="userSpaceOnUse">
					<stop  offset="0" style="stop-color:#FFFFFF"/>
					<stop  offset="1" style="stop-color:#A0A0A1"/>
				</radialGradient>
				<path style="fill:url(#SVGID_12_);" d="M761.301,317.5c-0.301-0.1-0.701-0.2-0.9-0.2c-32.1-7.898-64.301-15.198-96.6-21.898
					c-90.701-19-155.799-28.5-195.5-28.5c-30.5,0-59.899,1.398-88,4.1c-12.5,1.301-23.8,2.602-33.899,4.102
					c-2,3-3.898,5.898-5.601,8.7c-9.7,16-18.399,30.6-26.399,44c-7.898,13.3-14.101,26.6-18.4,39.6c-4.8,14.6-7.2,29.5-7.2,44.899
					c0,31.501,6.6,54.501,19.8,68.801c5.6,6.2,13.2,11.601,22.7,16.5c6.2,3.101,15.7,7.101,28.7,11.9c0.197,0.1,0.5,0.198,0.8,0.3
					v0.5c47.7,9.398,83.897,8.301,108.601-3.3c24.699-11.7,45.101-16.802,61.101-15.2c16.1,1.601,27,3.398,32.801,5.398
					c4.299,1.399,9,2.801,14.299,4.2c0.201,0.102,0.4,0.199,0.701,0.199l0.5,0.2l-0.5,0.3C580.4,503.9,584,505.9,588.9,508
					c8.699,3.9,18.1,6.802,27.898,8.7c9.801,2,17.602,2.9,23.301,2.9c5.699-0.101,14.396,0.1,26,0.899
					c11.699,0.698,18.6,0.5,20.896-0.802c1.604-0.198,3.303-0.6,5-0.898c21.104-4.102,38.4-14.399,51.803-30.8
					c18.697-22.9,28-55.802,28-98.702C771.801,365.1,768.301,341.3,761.301,317.5z"/>
				<path style="fill:none;stroke:#000000;stroke-linecap:round;stroke-linejoin:round;" d="M761.301,317.5
					c-0.102-0.2-0.201-0.3-0.201-0.5l0,0"/>
				<path style="fill:none;stroke:#000000;stroke-linecap:round;stroke-linejoin:round;" d="M386.8,225.9
					c-17.3,18.7-30.8,35.1-40.4,49.2"/>
				<path style="fill:none;stroke:#000000;stroke-linecap:round;stroke-linejoin:round;" d="M577.6,501.4
					c0.201,0.1,0.4,0.199,0.701,0.199"/>
				<path style="fill:none;stroke:#000000;stroke-linecap:round;stroke-linejoin:round;" d="M761.301,317.5
					c-0.301-0.1-0.701-0.2-0.9-0.2"/>
			</g>
			<g>
				<path style="fill:#C20000;" d="M482.8,195.3c-33.7,2.2-62.8,15-87.2,38.2c-22,27.602-28,58.102-18.102,91.7
					c2,6.9,5.699,12.6,11.102,17.1c23.301,19.2,50.7,27.4,82.5,24.5c29.5-2.8,53.8-15.198,72.8-37.3c23.199-27,27.6-56.6,13.4-89
					C543.1,208.3,518.301,193.3,482.8,195.3z"/>
			</g>
			<g>
				<path d="M737.6,302.5c0-5.1-0.699-8.3-1.799-9.7c-1.701-2-4.9-3-9.801-3c-2.6,0-5.9,2.102-10,6.4c-4,4.2-6,7.7-6,10.4
					c0,3.3,1.6,5.5,5,6.5c1,0.3,2.9,0.8,5.6,1.398c2.801,0.8,5.5,1.102,8.1,1c9.801,8.102,22.4,17.3,37.9,27.602
					c10.301,7,22.201,14.698,35.4,23.198c-4.199,1.302-18.699,9.5-43.4,24.7c-18.299,11.3-29.799,18.4-34.299,21.2L724,411.8
					c-0.6-0.698-2.1-1-4.5-1c-4.699,0-9.5,3.7-14.5,11.002c-4.6,6.8-7,12.7-7,17.7c0,3.8,0.5,8,1.6,12.8c1.4,6.8,3.5,12.8,6.5,18
					c6.5,11.3,15.701,17.5,27.6,18.5l0.701-3.8c1.699,1.5,3.5,2.8,5.1,3.898c4,2.5,7.604,3.8,11,3.8c1.9,0,3.4-0.7,4.604-2.101
					c1.5-1.8,2.896-2.8,3.896-3.3l0.104-0.399c1.5,0.3,2.896,0.399,4.396,0.399c2.604,0,4.303-0.801,5.104-2.399
					c1.301-3,2.801-5.301,4.396-6.7c-3.1,0.3-8.896-1.8-17.396-6.3c-3.801-2.101-7.199-4.2-10.199-6.5l1.6-1.801
					c2.801-1.101,4.301-2.5,4.5-4.3c-0.4-2.2-0.5-3.8-0.5-4.8v-0.9c-3.199-2.1-6.5-4.5-9.6-7.3c-6.301-5.5-9.4-10.399-9.4-14.5
					c0-0.8,0.6-2.3,1.6-4.5c1.4-2.899,2.801-4.7,4.4-5.5c-3.699,1.3,7.699-7.102,34.1-25.302c26.5-17.898,41.801-27.699,45.9-29.398
					c-9-6.7-18.4-13.102-28-19c-10.4-6.102-17.699-10.5-22.301-13.2c-7.799-4.7-14.398-9.1-19.6-13c-1.104-0.9-2.199-1.8-3.4-2.7
					c-0.6-0.6-1.299-1.1-1.898-1.6c-1-0.8-1.9-1.7-2.801-2.5c-0.6-0.7-0.9-1.3-1.199-2C738.1,311.1,737.6,307.5,737.6,302.5z
					 M749,482.802L749,482.802L749,482.802L749,482.802z"/>
			</g>
		</g>
		<g>
			<g>
				<path style="fill:#B29652;" d="M831.6,540.601V524l-258.299-33l0,0V507.6l0,0L831.6,540.601z"/>
				<path style="fill:#FDD000;" d="M245.9,533.302h-0.1l0,0V550h0.1L573.301,507.6l0,0l0,0V491L245.9,533.302z"/>
				<path style="fill:#B29652;" d="M573.301,507.6L573.301,507.6L245.9,550l258.2,32.9l327.5-42.3L573.301,507.6z"/>
				
					<line style="fill:none;stroke:#000000;stroke-linecap:round;stroke-linejoin:round;" x1="831.6" y1="524" x2="831.6" y2="540.601"/>
				
					<line style="fill:none;stroke:#000000;stroke-linecap:round;stroke-linejoin:round;" x1="245.9" y1="533.302" x2="245.8" y2="533.302"/>
				<polyline style="fill:none;stroke:#B29652;stroke-linecap:round;stroke-linejoin:round;" points="573.301,491 245.9,533.302 
					245.8,533.302 245.8,533.302 245.8,550 245.9,550 				"/>
				<polyline style="fill:none;stroke:#B29652;stroke-linecap:round;stroke-linejoin:round;" points="573.301,491 573.301,507.6 
					573.301,507.6 573.301,507.6 245.9,550 				"/>
				<polyline style="fill:none;stroke:#B29652;stroke-linecap:round;stroke-linejoin:round;" points="245.9,550 504.1,582.9 
					831.6,540.601 831.6,524 573.301,491 573.301,491 				"/>
				
					<line style="fill:none;stroke:#FDD000;stroke-linecap:round;stroke-linejoin:round;" x1="573.301" y1="507.6" x2="831.6" y2="540.601"/>
			</g>
			<g>
				<g>
					<path style="fill:#B29652;" d="M300.5,595.802c0,4.3,0.3,7.198,0.6,8.698c0.5,1.5,1,2.602,1.9,3.4
						c0.6,0.5,1.6,0.699,2.698,0.399c1.802-0.2,3.201-1.3,4.102-3.3c0.7-1.602,1.101-4,1.3-7.302L300.5,595.802z"/>
					<path style="fill:#FDD000;" d="M300.5,595.802l-20.202,6.8c0.3,7.101,1.5,12.801,3.5,17c1.9,4.101,4.7,7.101,8.3,8.801
						c1.8,0.8,4,1.399,6.5,1.602c2.5,0.1,5.3,0,8.5-0.5c6.2-1,11.2-3.7,15.2-7.9c3.897-4.1,6.601-8.899,7.897-14.1
						c0.4-1.9,0.801-4,1.103-6.4c0.601-4.399,0.8-9.6,0.8-15.699v-45.602l-21,3.5v51.6c0,0.899,0,1.8,0,2.8
						c-0.199,3.301-0.602,5.7-1.3,7.301c-0.899,2-2.301,3.101-4.102,3.301c-1.1,0.3-2.1,0.101-2.7-0.399
						c-0.898-0.801-1.398-1.898-1.898-3.398C300.8,603,300.5,600.1,300.5,595.802z"/>
					<path style="fill:#B29652;" d="M331.3,601.1c-0.3,2.398-0.7,4.5-1.103,6.398c-1.299,5.2-4,10-7.897,14.102
						c-4,4.2-9,6.898-15.2,7.898c-3.2,0.5-6,0.602-8.5,0.5l217.9,36.802c0.1,0.101,0.1,0.198,0.301,0.198
						c2.799,0.802,6.299,1.103,10.398,0.603c0.9-0.103,1.701-0.2,2.701-0.4c6.1-1,11.199-3.5,15.1-7.699
						c0.1-0.199,1.5-2.398,4-6.898l-213.2-29.302l66.2-73.199l-69.9-10.301v45.6C332.1,591.5,331.9,596.7,331.3,601.1z"/>
					<path style="fill:none;stroke:#B29652;stroke-linecap:round;stroke-linejoin:round;" d="M311.1,597.7
						c-0.199,3.3-0.6,5.7-1.3,7.3c-0.899,2-2.3,3.102-4.102,3.302c-1.1,0.3-2.1,0.101-2.698-0.399c-0.9-0.801-1.4-1.898-1.9-3.398
						c-0.3-1.5-0.6-4.4-0.6-8.7"/>
					<path style="fill:none;stroke:#B29652;stroke-linecap:round;stroke-linejoin:round;" d="M298.6,630c2.5,0.102,5.3,0,8.5-0.5
						c6.2-1,11.2-3.698,15.2-7.898c3.897-4.102,6.601-8.899,7.897-14.102c0.4-1.898,0.803-4,1.103-6.398
						c0.601-4.399,0.8-9.602,0.8-15.699v-45.601l-21,3.5v51.6c0,0.899,0,1.8,0,2.8"/>
					
						<line style="fill:none;stroke:#B29652;stroke-linecap:round;stroke-linejoin:round;" x1="311.1" y1="597.7" x2="300.5" y2="595.802"/>
					
						<line style="fill:none;stroke:#B29652;stroke-linecap:round;stroke-linejoin:round;" x1="298.6" y1="630" x2="516.5" y2="666.802"/>
					<path style="fill:none;stroke:#B29652;stroke-linecap:round;stroke-linejoin:round;" d="M300.5,595.802l-20.202,6.8
						c0.3,7.101,1.5,12.801,3.5,17c1.9,4.101,4.7,7.101,8.3,8.801c1.8,0.8,4,1.399,6.5,1.602"/>
					
						<line style="fill:none;stroke:#FDD000;stroke-linecap:round;stroke-linejoin:round;" x1="402" y1="550.101" x2="332.1" y2="539.802"/>
				</g>
				<g>
					<path style="fill:#B29652;" d="M708,633.802l1.9-6.7l-51.9-6.9l-0.1,0.301v-0.301l-146.001-19.5l-1.397-4.6l-22.2-2.899
						l-3.103,10.899L708,633.802z"/>
					<path style="fill:#B29652;" d="M657.9,620.2h0.1l51.9,6.899l24.699,3.4l21.699-2.9L533.6,598l-21.7,2.7L657.9,620.2z"/>
					<path style="fill:#B29652;" d="M668.801,638.802l1.5-4.5l-206.299-27.5l22.1-64.399l-16.699-2.3L446,609.1L668.801,638.802z"/>
					<path style="fill:#B29652;" d="M670.301,634.302l16.5,2.3l21.199-2.8l-222.801-29.7l-21.197,2.7L670.301,634.302z"/>
					<path style="fill:#B29652;" d="M628.1,644l-1.799-5L423.9,612l-21.8-57.897l-20.4-2.801l23.701,63L628.1,644z"/>
					<path style="fill:#B29652;" d="M626.301,639l20.299,2.603l22.201-2.801L446,609.1L423.9,612L626.301,639z"/>
					<path style="fill:#B29652;" d="M606.4,646.802L628.1,644l-222.7-29.698l-21.801,2.8l198,26.501L606.4,646.802z"/>
					<path style="fill:#B29652;" d="M756.301,627.6l-23.602-63L509.9,535l23.7,63L756.301,627.6z"/>
					<path style="fill:#FDD000;" d="M509.9,535l-22.201,2.802l-1.6,4.601L464,606.802l21.197-2.7l3.103-10.9l20.5-2.601l1.7,5.5
						l1.397,4.601L533.6,598L509.9,535z M498.1,556.4l0.5-1.601l0.5,1.801l5.4,18.699l-11.9,1.601L498.1,556.4z"/>
					<path style="fill:#B29652;" d="M499.1,556.601l-1-0.2l-5.5,20.5l11.9-1.601L499.1,556.601z"/>
					<path style="fill:#FDD000;" d="M469.4,540.101l-21.1,2.699l-1.899,6.801L435.1,590.7l-13.3-44.5l-21.7,2.8l2,5.103L423.9,612
						L446,609.1L469.4,540.101z"/>
					<path style="fill:#B29652;" d="M488.3,593.2l22.2,2.899l-1.7-5.5L488.3,593.2z"/>
					<path style="fill:#B29652;" d="M360.1,609.6L360.1,609.6l22.2,3L380.6,607L360.1,609.6z"/>
					<path style="fill:#B29652;" d="M360.1,609.6L357,620.5l222.8,29.7l1.799-6.6l-198-26.501l-1.3-4.5L360.1,609.6z"/>
					<path style="fill:#FDD000;" d="M360.1,609.6L360.1,609.6L380.6,607l1.7,5.602l1.3,4.5l21.801-2.8l-23.701-63l-22.197,2.898
						l-23.7,69l21.2-2.7L360.1,609.6z M364.5,593.2l5.898-22l5.899,20.5L364.5,593.2z"/>
					<path style="fill:#B29652;" d="M370.4,571.2l-5.898,22l11.8-1.5L370.4,571.2z"/>
					<path style="fill:#B29652;" d="M421.8,546.2l13.3,44.5l11.301-41.1L421.8,546.2z"/>
					<path style="fill:#B29652;" d="M357,620.5l-21.2,2.7l209.7,28l13.1,1.8l21.201-2.8L357,620.5z"/>
					<polyline style="fill:none;stroke:#000000;stroke-linecap:round;stroke-linejoin:round;" points="657.9,620.5 657.9,620.2 
						658,620.2 657.9,620.5 					"/>
					
						<line style="fill:none;stroke:#000000;stroke-linecap:round;stroke-linejoin:round;" x1="499.1" y1="556.601" x2="498.1" y2="556.4"/>
					
						<line style="fill:none;stroke:#000000;stroke-linecap:round;stroke-linejoin:round;" x1="360.1" y1="609.6" x2="360.1" y2="609.6"/>
					<polyline style="fill:none;stroke:#B29652;stroke-linecap:round;stroke-linejoin:round;" points="498.6,554.802 499.1,556.601 
						504.5,575.302 492.6,576.9 498.1,556.4 498.6,554.802 					"/>
					<polyline style="fill:none;stroke:#B29652;stroke-linecap:round;stroke-linejoin:round;" points="487.699,537.802 486.1,542.4 
						464,606.802 485.199,604.1 488.3,593.2 508.8,590.6 510.5,596.1 511.899,600.7 533.6,598 509.9,535 487.699,537.802 					"/>
					<polyline style="fill:none;stroke:#B29652;stroke-linecap:round;stroke-linejoin:round;" points="448.3,542.802 446.4,549.601 
						435.1,590.7 421.8,546.2 400.1,549 402.1,554.101 423.9,612 446,609.1 469.4,540.101 448.3,542.802 					"/>
					<polyline style="fill:none;stroke:#B29652;stroke-linecap:round;stroke-linejoin:round;" points="370.4,571.2 376.3,591.7 
						364.5,593.2 370.4,571.2 					"/>
					<path style="fill:none;stroke:#B29652;stroke-linecap:round;stroke-linejoin:round;" d="M516.5,657.5c0.1,0,0.1,0,0.301,0
						c2.799,0.7,6.299,0.802,10.398,0.603c0.9-0.103,1.701-0.301,2.701-0.4c6.1-0.698,11.199-2.8,15.1-6.1
						c0.1-0.103,0.4-0.301,0.5-0.4l13.1,1.802l21.201-2.802l1.799-6.6l24.801,3.199L628.1,644l-1.799-5l20.299,2.603l22.201-2.801
						l1.5-4.5l16.5,2.3l21.199-2.8l1.9-6.7L734.6,630.5l21.699-2.898l-23.602-63"/>
					<polyline style="fill:none;stroke:#B29652;stroke-linecap:round;stroke-linejoin:round;" points="360.1,609.6 357,620.5 
						335.8,623.2 359.5,554.2 381.699,551.302 405.4,614.302 383.6,617.1 382.3,612.6 380.6,607 360.1,609.6 					"/>
					
						<line style="fill:none;stroke:#FDD000;stroke-linecap:round;stroke-linejoin:round;" x1="709.9" y1="627.1" x2="658" y2="620.2"/>
					
						<line style="fill:none;stroke:#FDD000;stroke-linecap:round;stroke-linejoin:round;" x1="402.1" y1="554.101" x2="381.699" y2="551.302"/>
					
						<line style="fill:none;stroke:#FDD000;stroke-linecap:round;stroke-linejoin:round;" x1="510.5" y1="596.1" x2="488.3" y2="593.2"/>
					
						<line style="fill:none;stroke:#FDD000;stroke-linecap:round;stroke-linejoin:round;" x1="486.1" y1="542.4" x2="469.4" y2="540.101"/>
					
						<line style="fill:none;stroke:#FDD000;stroke-linecap:round;stroke-linejoin:round;" x1="382.3" y1="612.6" x2="360.1" y2="609.6"/>
					
						<line style="fill:none;stroke:#FDD000;stroke-linecap:round;stroke-linejoin:round;" x1="335.8" y1="623.2" x2="545.5" y2="651.2"/>
					
						<line style="fill:none;stroke:#FDD000;stroke-linecap:round;stroke-linejoin:round;" x1="357" y1="620.5" x2="579.801" y2="650.2"/>
					
						<line style="fill:none;stroke:#FDD000;stroke-linecap:round;stroke-linejoin:round;" x1="383.6" y1="617.1" x2="581.6" y2="643.601"/>
					
						<line style="fill:none;stroke:#FDD000;stroke-linecap:round;stroke-linejoin:round;" x1="446.4" y1="549.601" x2="421.8" y2="546.2"/>
					
						<line style="fill:none;stroke:#FDD000;stroke-linecap:round;stroke-linejoin:round;" x1="464" y1="606.802" x2="670.301" y2="634.302"/>
					
						<line style="fill:none;stroke:#FDD000;stroke-linecap:round;stroke-linejoin:round;" x1="423.9" y1="612" x2="626.301" y2="639"/>
					
						<line style="fill:none;stroke:#FDD000;stroke-linecap:round;stroke-linejoin:round;" x1="628.1" y1="644" x2="405.4" y2="614.302"/>
					
						<line style="fill:none;stroke:#FDD000;stroke-linecap:round;stroke-linejoin:round;" x1="756.301" y1="627.6" x2="533.6" y2="598"/>
					
						<line style="fill:none;stroke:#FDD000;stroke-linecap:round;stroke-linejoin:round;" x1="657.9" y1="620.2" x2="511.899" y2="600.7"/>
					
						<line style="fill:none;stroke:#FDD000;stroke-linecap:round;stroke-linejoin:round;" x1="485.199" y1="604.1" x2="708" y2="633.802"/>
					
						<line style="fill:none;stroke:#FDD000;stroke-linecap:round;stroke-linejoin:round;" x1="668.801" y1="638.802" x2="446" y2="609.1"/>
					
						<line style="fill:none;stroke:#FDD000;stroke-linecap:round;stroke-linejoin:round;" x1="732.699" y1="564.6" x2="509.9" y2="535"/>
				</g>
			</g>
			<g>
				<path style="fill:#B29652;" d="M810.801,634.7v-8.898L810,625.7l-243.6-31.1l0,0h0.1v9.2l243.5,31L810.801,634.7z"/>
				<path style="fill:#FDD000;" d="M253.8,635.1V644l0.8,0.103l311.8-40.301V603.7v-9.1L254.6,635L253.8,635.1z"/>
				<path style="fill:#B29652;" d="M566.5,603.802h-0.1l-311.8,40.301l243.5,31l0,0L810,634.802L566.5,603.802z"/>
				<polyline style="fill:none;stroke:#000000;stroke-linecap:round;stroke-linejoin:round;" points="566.4,594.6 566.5,594.6 
					566.5,603.802 				"/>
				<polyline style="fill:none;stroke:#000000;stroke-linecap:round;stroke-linejoin:round;" points="810.801,625.6 
					810.801,625.802 810,625.7 810.801,625.6 				"/>
				<polyline style="fill:none;stroke:#000000;stroke-linecap:round;stroke-linejoin:round;" points="810.801,635 810,634.802 
					810.801,634.7 810.801,635 				"/>
				<polyline style="fill:none;stroke:#000000;stroke-linecap:round;stroke-linejoin:round;" points="253.8,644.101 254.6,644.101 
					253.8,644 253.8,644.101 				"/>
				
					<line style="fill:none;stroke:#000000;stroke-linecap:round;stroke-linejoin:round;" x1="566.5" y1="603.802" x2="566.4" y2="603.802"/>
				<polyline style="fill:none;stroke:#000000;stroke-linecap:round;stroke-linejoin:round;" points="253.8,634.802 254.6,635 
					253.8,635.1 253.8,634.802 				"/>
				
					<line style="fill:none;stroke:#000000;stroke-linecap:round;stroke-linejoin:round;" x1="566.4" y1="603.7" x2="566.5" y2="603.802"/>
				
					<line style="fill:none;stroke:#B29652;stroke-linecap:round;stroke-linejoin:round;" x1="253.8" y1="635.1" x2="253.8" y2="644"/>
				<polyline style="fill:none;stroke:#B29652;stroke-linecap:round;stroke-linejoin:round;" points="566.4,603.802 254.6,644.101 
					498.1,675.101 498.1,675.101 810,634.802 				"/>
				
					<line style="fill:none;stroke:#B29652;stroke-linecap:round;stroke-linejoin:round;" x1="810.801" y1="634.7" x2="810.801" y2="625.802"/>
				<polyline style="fill:none;stroke:#B29652;stroke-linecap:round;stroke-linejoin:round;" points="254.6,635 566.4,594.6 
					566.4,603.7 				"/>
				
					<line style="fill:none;stroke:#FDD000;stroke-linecap:round;stroke-linejoin:round;" x1="810" y1="634.802" x2="566.5" y2="603.802"/>
				<polyline style="fill:none;stroke:#FDD000;stroke-linecap:round;stroke-linejoin:round;" points="810,625.7 566.4,594.6 
					566.4,594.6 				"/>
			</g>
			<g>
				<path style="fill:#B29652;" d="M615.801,742.7c4,0,7.699-0.2,11.1-0.6c6-0.801,11.1-2.301,15.199-4.5c2.6-1.4,5-3.301,7.4-5.801
					l-229.9-29.3V629l-13.9-1.898v45.8c0,1.399-0.1,2.8-0.197,4.3c-0.303,3-0.9,6-1.803,8.9c-1.299,4.199-3.299,8.1-6.1,11.5
					c-2.9,3.5-5.8,6-9,7.6c-4.199,2.301-9.199,3.801-15.199,4.5c-3.5,0.5-7.201,0.7-11.201,0.7c-0.697,0-1.397,0-2.197-0.101
					L572.4,737.5l38.5,4.801c0.4,0.199,1,0.199,1.5,0.301C613.5,742.601,614.6,742.7,615.801,742.7z"/>
				<path style="fill:#B29652;" d="M649.5,731.802l23.6,3l23.301-3l-253.599-32.199l-23.2,2.898L649.5,731.802z"/>
				<path style="fill:#B29652;" d="M748.1,725.2l-1-1.7L501.3,692.101v-39.5l-33-4l26.3,44.3L748.1,725.2z"/>
				<path style="fill:#B29652;" d="M747.1,723.5l7.801,1l60.1-7.8l-253.6-32.2l-60.099,7.603L747.1,723.5z"/>
				<path style="fill:#B29652;" d="M696.4,731.802V725.7l-229.6-29.2l-6.7-13.698l-17.3-2.199v19L696.4,731.802z"/>
				<path style="fill:#B29652;" d="M696.4,725.7l24,3.102L748.1,725.2l-253.5-32.3l-27.8,3.6L696.4,725.7z"/>
				<path style="fill:#B29652;" d="M813.9,657.9v-18.2l-17.801-2.2l-235.699-30V625.6L813.9,657.9z"/>
				<path style="fill:#B29652;" d="M778.1,663.7v-1.3l-253.5-32.3v9.801l33.201-4.2L778.1,663.7z"/>
				<path style="fill:#B29652;" d="M778.1,693v-3.397l-253.5-32.301v12.301l1.701,0.199l35.1-4.5L778.1,693z"/>
				<path style="fill:#B29652;" d="M811.4,685.4V668l-33.301-4.3l-220.301-28v17.4L811.4,685.4z"/>
				<path style="fill:#B29652;" d="M815,697.601L778.1,693L561.4,665.302V684.5L815,716.7V697.601z"/>
				<path style="fill:#B29652;" d="M778.1,689.601l33.301-4.2l-253.6-32.3l-33.201,4.199L778.1,689.601z"/>
				<path style="fill:#B29652;" d="M778.1,662.4l35.801-4.5l-253.5-32.3l-35.801,4.5L778.1,662.4z"/>
				<path style="fill:#B29652;" d="M319.4,649.302c2.602,3.301,4.5,7.198,5.699,11.698c0.5,2,0.898,4,1.2,6.103
					c0.3,2.699,0.5,5.6,0.5,8.5c0,8.1-0.802,14.6-2.603,19.397c-1.699,4.7-4.1,8.802-7.199,12.302c-3.099,3.5-6.398,6-10,7.5
					c-4.8,2-9,3.301-12.898,3.801l-32.7,4.199L515,755.101l32.6-4.2c3.9-0.398,8.201-1.8,12.9-3.8c3.6-1.5,7-4,10-7.4
					c0.699-0.698,1.301-1.5,1.9-2.198L360,710.302c-1.4-0.102-2.7-0.199-3.9-0.5c-1.5-0.302-2.9-0.699-4.1-1.199
					c-2.803-1.301-5.4-3.2-7.602-5.801c-2.301-2.602-3.898-5.5-4.701-8.5c-1.299-4.699-2.1-8.802-2.1-12.699v-36l-30.4-3.9
					c0.803,0.2,1.603,0.4,2.4,0.602C313.5,643.7,316.9,646.101,319.4,649.302z"/>
				<path style="fill:#FDD000;" d="M325.1,661c-1.199-4.5-3.1-8.397-5.699-11.698c-2.5-3.199-5.898-5.602-9.801-7
					c-0.8-0.199-1.6-0.399-2.4-0.602c-3.6-0.8-8-0.898-13.1-0.2l-32.7,4.103v77.199l32.7-4.199c3.9-0.5,8.1-1.801,12.9-3.801
					c3.6-1.5,6.898-4,10-7.5c3.1-3.5,5.5-7.602,7.197-12.302c1.803-4.8,2.603-11.3,2.603-19.397c0-2.9-0.2-5.801-0.5-8.5
					C326,665,325.6,663,325.1,661z M300,663.7c0.1,0,0.1,0.102,0.1,0.102c2.3,2.398,3.4,7.5,3.4,15.198c0,5.802-0.5,10.103-1.5,12.7
					c-1,2.601-2.4,4.5-4.102,5.8c-1.7,1.103-4.7,2-9,2.603l-4.3,0.5v-38.9l4.4-0.5C294.1,660.601,297.8,661.4,300,663.7z"/>
				<path style="fill:#B29652;" d="M300.1,663.802c0,0,0-0.102-0.1-0.102l-15.4-2v38.9l4.3-0.5c4.3-0.601,7.3-1.5,9-2.601
					c1.7-1.302,3.102-3.2,4.102-5.802c1-2.6,1.5-6.898,1.5-12.698C303.5,671.302,302.4,666.2,300.1,663.802z"/>
				<path style="fill:#B29652;" d="M289,661.2l-4.4,0.5l15.4,2C297.8,661.4,294.1,660.601,289,661.2z"/>
				<path style="fill:#FDD000;" d="M501.3,615v2v35.603v39.5l60.1-7.603v-19.198l-35.102,4.5L524.6,670v-0.397v-12.301l33.199-4.199
					v-17.4l-33.199,4.2V630.1l35.801-4.5V607.5L501.3,615z"/>
				<path style="fill:#B29652;" d="M501.3,617l-7.8-1l-25.2,32.603l33,4V617z"/>
				<path style="fill:#B29652;" d="M442.8,650.7l17.601-26l-17.601-2.3V650.7z"/>
				<path style="fill:#FDD000;" d="M460.4,624.7l-17.601,26v-28.3l-23.2,3v3.6v73.5l23.2-2.897v-19l9.8-13.103l7.5,15.302
					l6.7,13.698l27.8-3.6l-26.3-44.3L493.5,616l-29.803,3.7L460.4,624.7z"/>
				<path style="fill:#FDD000;" d="M403.699,686.101c0.9-2.9,1.5-5.9,1.803-8.9c0.1-1.5,0.197-2.898,0.197-4.3V627.1l-23.197,3v5.5
					V677c0,3.802-0.9,7-2.9,9.2c-1.8,2.4-4.5,3.8-8,4.2c-3.4,0.399-6-0.3-7.9-2.101c-1.799-1.899-2.799-4.699-2.799-8.602v-46.8
					l-23.301,2.901v9.801v36c0,3.897,0.801,8,2.1,12.699c0.803,3,2.4,5.898,4.701,8.5c2.199,2.601,4.799,4.5,7.602,5.801
					c1.197,0.5,2.6,0.897,4.1,1.199c1.2,0.301,2.5,0.398,3.9,0.5c0.8,0.101,1.5,0.101,2.197,0.101c4,0,7.701-0.2,11.201-0.7
					c6-0.698,11-2.198,15.199-4.5c3.2-1.6,6.1-4.1,9-7.6C400.4,694.2,402.4,690.302,403.699,686.101z"/>
				<path style="fill:#B29652;" d="M442.8,680.601l17.3,2.199l-7.5-15.302L442.8,680.601z"/>
				<path style="fill:#B29652;" d="M360.9,679.7c0,3.9,1,6.7,2.799,8.602c1.9,1.801,4.5,2.5,7.9,2.101c3.5-0.398,6.2-1.8,8-4.2
					c2-2.198,2.898-5.398,2.898-9.198v-41.4l-21.6-2.699L360.9,679.7L360.9,679.7z"/>
				<path style="fill:none;stroke:#B29652;stroke-linecap:round;stroke-linejoin:round;" d="M261.4,722.802l253.6,32.3l32.6-4.2
					c3.9-0.398,8.201-1.8,12.9-3.8c3.6-1.5,7-4,10-7.4c0.699-0.698,1.301-1.5,1.9-2.198l38.5,4.8c0.398,0.2,1,0.2,1.5,0.301
					c1.1,0,2.199,0.1,3.398,0.1c4,0,7.697-0.199,11.102-0.6c6-0.801,11.1-2.301,15.199-4.5c2.6-1.4,5-3.301,7.396-5.801l23.604,3
					l23.301-3v-6.102l24,3.102l27.699-3.602l-1-1.698l7.801,1l60.1-7.802v-19.1L778.1,693v-3.397l33.301-4.2V668l-33.301-4.3v-1.3
					l35.801-4.5"/>
				
					<line style="fill:none;stroke:#B29652;stroke-linecap:round;stroke-linejoin:round;" x1="526.301" y1="669.802" x2="524.6" y2="669.601"/>
				<path style="fill:none;stroke:#B29652;stroke-linecap:round;stroke-linejoin:round;" d="M300.1,663.802
					c2.3,2.398,3.4,7.5,3.4,15.198c0,5.802-0.5,10.103-1.5,12.7c-1,2.601-2.4,4.5-4.102,5.8c-1.7,1.103-4.7,2-9,2.603l-4.3,0.5
					v-38.9l4.4-0.5c5.1-0.6,8.8,0.2,11,2.5C300.1,663.7,300.1,663.802,300.1,663.802"/>
				
					<line style="fill:none;stroke:#FDD000;stroke-linecap:round;stroke-linejoin:round;" x1="284.6" y1="661.7" x2="300" y2="663.7"/>
				<polyline style="fill:none;stroke:#FDD000;stroke-linecap:round;stroke-linejoin:round;" points="560.4,607.5 501.3,615 
					501.3,617 				"/>
				<line style="fill:none;stroke:#FDD000;stroke-linecap:round;stroke-linejoin:round;" x1="501.3" y1="617" x2="493.5" y2="616"/>
				<polyline style="fill:none;stroke:#FDD000;stroke-linecap:round;stroke-linejoin:round;" points="460.4,624.7 442.8,650.7 
					442.8,622.4 				"/>
				
					<line style="fill:none;stroke:#FDD000;stroke-linecap:round;stroke-linejoin:round;" x1="460.4" y1="624.7" x2="442.8" y2="622.4"/>
				<polyline style="fill:none;stroke:#FDD000;stroke-linecap:round;stroke-linejoin:round;" points="442.8,622.4 419.6,625.4 
					419.6,629 				"/>
				
					<line style="fill:none;stroke:#FDD000;stroke-linecap:round;stroke-linejoin:round;" x1="419.6" y1="629" x2="405.699" y2="627.1"/>
				<path style="fill:none;stroke:#FDD000;stroke-linecap:round;stroke-linejoin:round;" d="M360,710.302
					c0.8,0.101,1.5,0.101,2.197,0.101c4,0,7.701-0.2,11.201-0.7c6-0.698,11-2.198,15.199-4.5c3.2-1.6,6.1-4.1,9-7.6
					c2.801-3.4,4.801-7.301,6.1-11.5c0.9-2.9,1.5-5.9,1.803-8.9c0.1-1.5,0.197-2.898,0.197-4.3V627.1"/>
				
					<line style="fill:none;stroke:#FDD000;stroke-linecap:round;stroke-linejoin:round;" x1="442.8" y1="680.601" x2="460.1" y2="682.802"/>
				
					<line style="fill:none;stroke:#FDD000;stroke-linecap:round;stroke-linejoin:round;" x1="466.8" y1="696.5" x2="460.1" y2="682.802"/>
				<path style="fill:none;stroke:#FDD000;stroke-linecap:round;stroke-linejoin:round;" d="M307.199,641.7
					c-3.6-0.8-8-0.898-13.1-0.2l-32.7,4.103v77.199l32.7-4.199c3.9-0.5,8.1-1.801,12.898-3.801c3.602-1.5,6.9-4,10-7.5
					c3.102-3.5,5.5-7.602,7.199-12.302c1.801-4.8,2.603-11.3,2.603-19.397c0-2.9-0.2-5.801-0.5-8.5C326,665,325.6,663,325.1,661
					c-1.199-4.5-3.1-8.397-5.699-11.698c-2.5-3.199-5.898-5.602-9.801-7C308.8,642.101,308,641.9,307.199,641.7"/>
				
					<line style="fill:none;stroke:#FDD000;stroke-linecap:round;stroke-linejoin:round;" x1="442.8" y1="680.601" x2="442.8" y2="699.601"/>
				
					<line style="fill:none;stroke:#FDD000;stroke-linecap:round;stroke-linejoin:round;" x1="442.8" y1="699.601" x2="419.6" y2="702.5"/>
				
					<line style="fill:none;stroke:#FDD000;stroke-linecap:round;stroke-linejoin:round;" x1="419.6" y1="702.5" x2="419.6" y2="629"/>
				<polyline style="fill:none;stroke:#FDD000;stroke-linecap:round;stroke-linejoin:round;" points="405.699,627.1 382.5,630.1 
					382.5,635.6 				"/>
				<polyline style="fill:none;stroke:#FDD000;stroke-linecap:round;stroke-linejoin:round;" points="360.9,632.9 337.6,635.802 
					337.6,645.601 				"/>
				<path style="fill:none;stroke:#FDD000;stroke-linecap:round;stroke-linejoin:round;" d="M360.9,632.9v46.8
					c0,3.9,1,6.7,2.799,8.602c1.9,1.801,4.5,2.5,7.9,2.101c3.5-0.398,6.2-1.8,8-4.2c2-2.198,2.898-5.398,2.898-9.198v-41.4"/>
				<path style="fill:none;stroke:#FDD000;stroke-linecap:round;stroke-linejoin:round;" d="M360,710.302
					c-1.4-0.102-2.7-0.199-3.9-0.5c-1.5-0.302-2.9-0.699-4.1-1.199c-2.803-1.301-5.4-3.2-7.602-5.801
					c-2.301-2.602-3.898-5.5-4.701-8.5c-1.299-4.699-2.1-8.802-2.1-12.699v-36"/>
				
					<line style="fill:none;stroke:#FDD000;stroke-linecap:round;stroke-linejoin:round;" x1="382.5" y1="635.6" x2="360.9" y2="632.9"/>
				
					<line style="fill:none;stroke:#FDD000;stroke-linecap:round;stroke-linejoin:round;" x1="557.801" y1="635.7" x2="557.801" y2="653.101"/>
				
					<line style="fill:none;stroke:#FDD000;stroke-linecap:round;stroke-linejoin:round;" x1="561.4" y1="665.302" x2="561.4" y2="684.5"/>
				<polyline style="fill:none;stroke:#FDD000;stroke-linecap:round;stroke-linejoin:round;" points="524.6,630.1 524.6,639.9 
					557.801,635.7 				"/>
				<polyline style="fill:none;stroke:#FDD000;stroke-linecap:round;stroke-linejoin:round;" points="460.1,682.802 452.6,667.5 
					442.8,680.601 				"/>
				<polyline style="fill:none;stroke:#FDD000;stroke-linecap:round;stroke-linejoin:round;" points="524.6,657.302 524.6,669.601 
					524.6,670 526.301,669.802 561.4,665.302 				"/>
				
					<line style="fill:none;stroke:#FDD000;stroke-linecap:round;stroke-linejoin:round;" x1="501.3" y1="692.101" x2="501.3" y2="652.601"/>
				
					<line style="fill:none;stroke:#FDD000;stroke-linecap:round;stroke-linejoin:round;" x1="561.4" y1="684.5" x2="501.3" y2="692.101"/>
				
					<line style="fill:none;stroke:#FDD000;stroke-linecap:round;stroke-linejoin:round;" x1="560.4" y1="625.6" x2="524.6" y2="630.1"/>
				
					<line style="fill:none;stroke:#FDD000;stroke-linecap:round;stroke-linejoin:round;" x1="557.801" y1="653.101" x2="524.6" y2="657.302"/>
				
					<line style="fill:none;stroke:#FDD000;stroke-linecap:round;stroke-linejoin:round;" x1="468.3" y1="648.601" x2="501.3" y2="652.601"/>
				
					<line style="fill:none;stroke:#FDD000;stroke-linecap:round;stroke-linejoin:round;" x1="501.3" y1="652.601" x2="501.3" y2="617"/>
				
					<line style="fill:none;stroke:#FDD000;stroke-linecap:round;stroke-linejoin:round;" x1="560.4" y1="607.5" x2="560.4" y2="625.6"/>
				
					<line style="fill:none;stroke:#FDD000;stroke-linecap:round;stroke-linejoin:round;" x1="493.5" y1="616" x2="468.3" y2="648.601"/>
				
					<line style="fill:none;stroke:#FDD000;stroke-linecap:round;stroke-linejoin:round;" x1="468.3" y1="648.601" x2="494.6" y2="692.9"/>
				
					<line style="fill:none;stroke:#FDD000;stroke-linecap:round;stroke-linejoin:round;" x1="494.6" y1="692.9" x2="466.8" y2="696.5"/>
				
					<line style="fill:none;stroke:#FDD000;stroke-linecap:round;stroke-linejoin:round;" x1="572.4" y1="737.5" x2="360" y2="710.302"/>
				<polyline style="fill:none;stroke:#FDD000;stroke-linecap:round;stroke-linejoin:round;" points="493.5,616 463.699,619.7 
					460.4,624.7 				"/>
				
					<line style="fill:none;stroke:#FDD000;stroke-linecap:round;stroke-linejoin:round;" x1="337.6" y1="645.601" x2="307.199" y2="641.7"/>
				
					<line style="fill:none;stroke:#FDD000;stroke-linecap:round;stroke-linejoin:round;" x1="696.4" y1="731.802" x2="442.8" y2="699.601"/>
				
					<line style="fill:none;stroke:#FDD000;stroke-linecap:round;stroke-linejoin:round;" x1="419.6" y1="702.5" x2="649.5" y2="731.802"/>
				
					<line style="fill:none;stroke:#FDD000;stroke-linecap:round;stroke-linejoin:round;" x1="501.3" y1="692.101" x2="747.1" y2="723.5"/>
				
					<line style="fill:none;stroke:#FDD000;stroke-linecap:round;stroke-linejoin:round;" x1="748.1" y1="725.2" x2="494.6" y2="692.9"/>
				
					<line style="fill:none;stroke:#FDD000;stroke-linecap:round;stroke-linejoin:round;" x1="466.8" y1="696.5" x2="696.4" y2="725.7"/>
				
					<line style="fill:none;stroke:#FDD000;stroke-linecap:round;stroke-linejoin:round;" x1="560.4" y1="625.6" x2="813.9" y2="657.9"/>
				
					<line style="fill:none;stroke:#FDD000;stroke-linecap:round;stroke-linejoin:round;" x1="778.1" y1="662.4" x2="524.6" y2="630.1"/>
				
					<line style="fill:none;stroke:#FDD000;stroke-linecap:round;stroke-linejoin:round;" x1="524.6" y1="657.302" x2="778.1" y2="689.601"/>
				
					<line style="fill:none;stroke:#FDD000;stroke-linecap:round;stroke-linejoin:round;" x1="561.4" y1="684.5" x2="815" y2="716.7"/>
				
					<line style="fill:none;stroke:#FDD000;stroke-linecap:round;stroke-linejoin:round;" x1="557.801" y1="653.101" x2="811.4" y2="685.4"/>
				
					<line style="fill:none;stroke:#FDD000;stroke-linecap:round;stroke-linejoin:round;" x1="561.4" y1="665.302" x2="778.1" y2="693"/>
				
					<line style="fill:none;stroke:#FDD000;stroke-linecap:round;stroke-linejoin:round;" x1="557.801" y1="635.7" x2="778.1" y2="663.7"/>
				
					<line style="fill:none;stroke:#FDD000;stroke-linecap:round;stroke-linejoin:round;" x1="796.1" y1="637.5" x2="560.4" y2="607.5"/>
			</g>
			<g>
				<path style="fill:#B29652;" d="M825.801,733.4v-16.6l-258.201-33l0,0v16.6L825.801,733.4z"/>
				<path style="fill:#FDD000;" d="M240.1,726.101v16.6l0,0l327.5-42.198v-0.102h-0.1v-16.601L240.1,726.101L240.1,726.101z"/>
				<path style="fill:#B29652;" d="M567.6,700.4v0.1l-327.5,42.2l258.301,33l327.4-42.3L567.6,700.4z"/>
				
					<line style="fill:none;stroke:#000000;stroke-linecap:round;stroke-linejoin:round;" x1="825.801" y1="716.802" x2="825.801" y2="733.4"/>
				
					<line style="fill:none;stroke:#000000;stroke-linecap:round;stroke-linejoin:round;" x1="567.5" y1="683.802" x2="567.6" y2="683.802"/>
				<polyline style="fill:none;stroke:#000000;stroke-linecap:round;stroke-linejoin:round;" points="567.6,700.4 567.5,700.4 
					567.5,683.802 				"/>
				<polyline style="fill:none;stroke:#000000;stroke-linecap:round;stroke-linejoin:round;" points="240.1,742.7 240,742.7 
					240,726.101 240.1,726.101 				"/>
				<polyline style="fill:none;stroke:#000000;stroke-linecap:round;stroke-linejoin:round;" points="240.1,726.101 240.1,726.101 
					240.1,726.101 				"/>
				<polyline style="fill:none;stroke:#000000;stroke-linecap:round;stroke-linejoin:round;" points="567.5,683.802 567.5,683.802 
					567.6,683.802 				"/>
				<polyline style="fill:none;stroke:#B29652;stroke-linecap:round;stroke-linejoin:round;" points="240.1,742.7 498.4,775.7 
					825.801,733.4 825.801,716.802 				"/>
				
					<line style="fill:none;stroke:#B29652;stroke-linecap:round;stroke-linejoin:round;" x1="240.1" y1="726.101" x2="567.5" y2="683.802"/>
				
					<line style="fill:none;stroke:#FDD000;stroke-linecap:round;stroke-linejoin:round;" x1="567.6" y1="683.802" x2="567.6" y2="700.4"/>
				
					<line style="fill:none;stroke:#FDD000;stroke-linecap:round;stroke-linejoin:round;" x1="825.801" y1="733.4" x2="567.6" y2="700.4"/>
				
					<line style="fill:none;stroke:#FDD000;stroke-linecap:round;stroke-linejoin:round;" x1="567.6" y1="683.802" x2="825.801" y2="716.802"/>
				<polyline style="fill:none;stroke:#FDD000;stroke-linecap:round;stroke-linejoin:round;" points="240.1,726.101 240.1,742.7 
					240.1,742.7 567.6,700.5 567.6,700.4 				"/>
			</g>
			<g>
				<path style="fill:#B29652;" d="M823.301,745.302l-6.602-9.5L565.4,703.7l0,0h0.1v9.102l2,0.301L807.1,743.5L823.301,745.302z"/>
				<path style="fill:#B29652;" d="M823.801,745.802L807.1,743.5l-239.6-30.397l-2-0.2v94.399v1v31.3h258.301V745.802z"/>
				<path style="fill:#FDD000;" d="M565.5,712.9v-0.1h-0.1V703.7l-318.301,40.9L238.8,755l2.6-0.3L565.5,712.9z"/>
				<path style="fill:#FDD000;" d="M565.5,808.302v-1v-94.4l-324.1,41.8l-3.4,0.5v94.4l327.5-10V808.302z"/>
				<polyline style="fill:none;stroke:#000000;stroke-linecap:round;stroke-linejoin:round;" points="565.5,712.9 565.5,712.802 
					565.5,712.802 				"/>
				
					<line style="fill:none;stroke:#000000;stroke-linecap:round;stroke-linejoin:round;" x1="565.5" y1="712.802" x2="565.4" y2="712.802"/>
				<polyline style="fill:none;stroke:#000000;stroke-linecap:round;stroke-linejoin:round;" points="565.5,712.9 565.5,712.9 
					565.5,712.802 				"/>
				
					<line style="fill:none;stroke:#000000;stroke-linecap:round;stroke-linejoin:round;" x1="565.4" y1="703.7" x2="565.5" y2="703.7"/>
				
					<line style="fill:none;stroke:#000000;stroke-linecap:round;stroke-linejoin:round;" x1="565.5" y1="712.802" x2="565.5" y2="712.9"/>
				
					<line style="fill:none;stroke:#000000;stroke-linecap:round;stroke-linejoin:round;" x1="567.5" y1="713.101" x2="565.5" y2="712.9"/>
				<polyline style="fill:none;stroke:#B29652;stroke-linecap:round;stroke-linejoin:round;" points="565.5,839.6 823.801,839.6 
					823.801,745.802 807.1,743.5 				"/>
				<polyline style="fill:none;stroke:#B29652;stroke-linecap:round;stroke-linejoin:round;" points="823.301,745.302 
					816.699,735.802 565.4,703.7 565.4,703.7 				"/>
				<polyline style="fill:none;stroke:#B29652;stroke-linecap:round;stroke-linejoin:round;" points="565.4,703.7 247.1,744.601 
					238.8,755 241.4,754.7 565.5,712.9 				"/>
				<polyline style="fill:none;stroke:#FDD000;stroke-linecap:round;stroke-linejoin:round;" points="565.5,712.802 567.5,713.101 
					807.1,743.5 823.301,745.302 				"/>
				<polyline style="fill:none;stroke:#FDD000;stroke-linecap:round;stroke-linejoin:round;" points="241.4,754.7 238,755.2 
					238,849.6 565.5,839.6 565.5,808.302 				"/>
				<polyline style="fill:none;stroke:#FDD000;stroke-linecap:round;stroke-linejoin:round;" points="565.5,808.302 565.5,807.302 
					565.5,808.302 				"/>
			</g>
		</g>
	</g>
</g>
<g id="jfx:p11">
	
		<linearGradient id="SVGID_13_" gradientUnits="userSpaceOnUse" x1="653.7559" y1="738.782" x2="653.7559" y2="739.7794" gradientTransform="matrix(1 0 0 1 0.0801 -73.9805)">
		<stop  offset="0" style="stop-color:#1C123B"/>
		<stop  offset="1" style="stop-color:#000000"/>
	</linearGradient>
	<circle style="fill:url(#SVGID_13_);" cx="653.836" cy="665.302" r="0.5"/>
</g>
<g id="jfx:p14">
	
		<linearGradient id="SVGID_14_" gradientUnits="userSpaceOnUse" x1="862.752" y1="704.032" x2="862.752" y2="705.0294" gradientTransform="matrix(1 0 0 1 0.0801 -73.9805)">
		<stop  offset="0" style="stop-color:#1C123B"/>
		<stop  offset="1" style="stop-color:#000000"/>
	</linearGradient>
	<circle style="fill:url(#SVGID_14_);" cx="862.832" cy="630.552" r="0.5"/>
</g>
<polygon style="opacity:0.6;fill:#FFFCDB;" points="375.108,0 624,677.2 682.1,671.6 494.143,0 "/>
<polygon style="opacity:0.6;fill:#FFFCDB;" points="599.129,0 835.699,643.6 893.801,638.1 715.221,0 "/>
<g id="jfx:p12">
	<g>
		
			<linearGradient id="SVGID_15_" gradientUnits="userSpaceOnUse" x1="51015.1484" y1="189091.5625" x2="52654.9141" y2="189091.5625" gradientTransform="matrix(0.0433 0 0 0.0244 -1590.0709 -3935.884)">
			<stop  offset="0" style="stop-color:#FDD000"/>
			<stop  offset="1" style="stop-color:#B29652"/>
		</linearGradient>
		<path style="fill:url(#SVGID_15_);" d="M629.4,662.2c-6.9,2.9-10.4,6.3-10.4,10.3c0,1.9,0.801,3.7,2.4,5.302L632.6,697.7
			l0.301-0.1c-0.102-2.4,2.1-4.5,6.299-6.2c4.303-1.8,9.4-2.601,15.4-2.601c5.9,0,11,0.801,15.301,2.601
			c4.199,1.7,6.299,3.8,6.299,6.2l0.4,0.3l12.1-21.4c0.9-1.3,1.303-2.698,1.303-4c0-4-3.4-7.397-10.4-10.3
			c-7-2.899-15.299-4.2-25.1-4.2C644.699,658,636.4,659.302,629.4,662.2z"/>
		
			<linearGradient id="SVGID_16_" gradientUnits="userSpaceOnUse" x1="86059.2422" y1="542201.5" x2="87695.8828" y2="542201.5" gradientTransform="matrix(0.0265 0 0 0.0086 -1647.7457 -3967.0833)">
			<stop  offset="0" style="stop-color:#FDD000"/>
			<stop  offset="1" style="stop-color:#B29652"/>
		</linearGradient>
		<path style="fill:url(#SVGID_16_);" d="M639.199,691.4c-4.199,1.7-6.398,3.8-6.299,6.2c-0.102,0.199-0.102,0.399,0,0.5l1.199,2.6
			c0.699,0.8,1.699,1.5,2.896,2.2V701c0.604-0.397,1.4-0.698,2.199-1c4.301-1.8,9.4-2.698,15.4-2.698c5.9,0,11,0.898,15.301,2.698
			c0.699,0.302,1.5,0.603,2.1,1v1.9c1.604-0.9,2.803-1.8,3.5-2.9c0.104-0.3,0.303-0.5,0.4-0.8c0.199-0.5,0.299-1,0.299-1.6
			c0-2.4-2.1-4.5-6.299-6.2c-4.301-1.8-9.4-2.601-15.301-2.601C648.6,688.802,643.5,689.601,639.199,691.4z"/>
		
			<linearGradient id="SVGID_17_" gradientUnits="userSpaceOnUse" x1="107583.7813" y1="37853.7031" x2="109222.1797" y2="37853.7031" gradientTransform="matrix(0.0214 0 0 0.1145 -1665.1753 -3543.0979)">
			<stop  offset="0" style="stop-color:#FDD000"/>
			<stop  offset="1" style="stop-color:#B29652"/>
		</linearGradient>
		<path style="fill:url(#SVGID_17_);" d="M639.199,700c-0.799,0.302-1.6,0.603-2.199,1v1.9V885h35V702.9V701
			c-0.6-0.397-1.4-0.698-2.1-1c-4.301-1.8-9.4-2.698-15.301-2.698C648.6,697.302,643.5,698.2,639.199,700z"/>
		<line style="fill:none;stroke:#000000;stroke-linecap:round;stroke-linejoin:round;" x1="637" y1="885" x2="672" y2="885"/>
		<path style="fill:none;stroke:#FDD000;stroke-linecap:round;stroke-linejoin:round;" d="M637,701c0.6-0.397,1.4-0.698,2.199-1
			c4.301-1.8,9.4-2.698,15.4-2.698c5.896,0,11,0.898,15.301,2.698c0.699,0.302,1.5,0.603,2.1,1"/>
		<path style="fill:none;stroke:#FDD000;stroke-linecap:round;stroke-linejoin:round;" d="M676.199,697.601c0-2.4-2.1-4.5-6.299-6.2
			c-4.301-1.8-9.4-2.601-15.301-2.601c-6,0-11.104,0.801-15.4,2.601c-4.199,1.7-6.398,3.8-6.299,6.2"/>
	</g>
</g>
<g id="jfx:p15">
	<g>
		
			<linearGradient id="SVGID_18_" gradientUnits="userSpaceOnUse" x1="51015.1289" y1="189089.4688" x2="52654.8516" y2="189089.4688" gradientTransform="matrix(0.0433 0 0 0.0244 -1379.3717 -3969.4338)">
			<stop  offset="0" style="stop-color:#FDD000"/>
			<stop  offset="1" style="stop-color:#B29652"/>
		</linearGradient>
		<path style="fill:url(#SVGID_18_);" d="M840.1,628.6c-7,2.898-10.4,6.301-10.4,10.301c0,1.899,0.801,3.7,2.4,5.399L843.4,664.2
			l0.199-0.1c-0.102-2.5,2-4.5,6.301-6.301c4.199-1.699,9.4-2.602,15.4-2.602c5.896,0,11,0.9,15.299,2.602
			c4.201,1.801,6.301,3.801,6.301,6.301l0.5,0.199l12-21.3c0.9-1.399,1.299-2.7,1.299-4.102c0-4-3.398-7.398-10.398-10.301
			c-6.898-2.8-15.299-4.199-25.102-4.199C855.4,624.4,847.1,625.802,840.1,628.6z"/>
		
			<linearGradient id="SVGID_19_" gradientUnits="userSpaceOnUse" x1="107583.8672" y1="37853.7031" x2="109222.2578" y2="37853.7031" gradientTransform="matrix(0.0214 0 0 0.1145 -1454.4751 -3576.6477)">
			<stop  offset="0" style="stop-color:#FDD000"/>
			<stop  offset="1" style="stop-color:#B29652"/>
		</linearGradient>
		<path style="fill:url(#SVGID_19_);" d="M847.699,667.5v1.802v182.1h35v-182.1v-1.9c-0.6-0.3-1.299-0.7-2.1-1
			c-4.301-1.8-9.4-2.601-15.301-2.601c-6,0-11.199,0.801-15.398,2.601C849.1,666.7,848.4,667.101,847.699,667.5z"/>
		
			<linearGradient id="SVGID_20_" gradientUnits="userSpaceOnUse" x1="86059.1641" y1="542195.5" x2="87696.0859" y2="542195.5" gradientTransform="matrix(0.0265 0 0 0.0086 -1437.0455 -4000.6331)">
			<stop  offset="0" style="stop-color:#FDD000"/>
			<stop  offset="1" style="stop-color:#B29652"/>
		</linearGradient>
		<path style="fill:url(#SVGID_20_);" d="M847.699,669.302V667.5c0.701-0.397,1.4-0.8,2.201-1.1c4.199-1.8,9.398-2.601,15.398-2.601
			c5.896,0,11,0.801,15.301,2.601c0.801,0.3,1.5,0.7,2.1,1v1.899c1.701-0.8,2.801-1.8,3.5-2.8c0.201-0.302,0.301-0.5,0.4-0.802
			c0.199-0.6,0.301-1.1,0.301-1.6c0-2.5-2.102-4.5-6.301-6.301c-4.301-1.699-9.4-2.602-15.301-2.602c-6,0-11.199,0.9-15.398,2.602
			c-4.301,1.801-6.4,3.801-6.301,6.301c-0.104,0.1-0.104,0.397,0,0.5l1.199,2.5C845.5,667.9,846.5,668.601,847.699,669.302z"/>
		
			<line style="fill:none;stroke:#000000;stroke-linecap:round;stroke-linejoin:round;" x1="847.699" y1="851.4" x2="882.699" y2="851.4"/>
		<path style="fill:none;stroke:#FDD000;stroke-linecap:round;stroke-linejoin:round;" d="M886.9,664.101
			c0-2.5-2.102-4.5-6.301-6.301c-4.301-1.699-9.4-2.602-15.301-2.602c-6,0-11.199,0.9-15.398,2.602
			c-4.301,1.801-6.4,3.801-6.301,6.301"/>
		<path style="fill:none;stroke:#FDD000;stroke-linecap:round;stroke-linejoin:round;" d="M847.699,667.5
			c0.701-0.397,1.4-0.8,2.201-1.1c4.199-1.8,9.398-2.601,15.398-2.601c5.896,0,11,0.801,15.301,2.601c0.801,0.3,1.5,0.7,2.1,1"/>
	</g>
</g>
</svg>
